<?xml version="1.0" encoding="utf-8"?>
<!-- Generator: Adobe Illustrator 21.0.0, SVG Export Plug-In . SVG Version: 6.00 Build 0)  -->
<svg version="1.1" id="Layer_1" xmlns="http://www.w3.org/2000/svg" xmlns:xlink="http://www.w3.org/1999/xlink" x="0px" y="0px"
	 viewBox="0 0 31.9 32" style="enable-background:new 0 0 31.9 32;" xml:space="preserve">
<style type="text/css">
	.st0{fill:#FFFFFF;stroke:#02A69C;stroke-width:0.5498;stroke-miterlimit:10;}
	.st1{fill:#02A69C;stroke:#FFFFFF;stroke-miterlimit:10;}
</style>
<g>
	<path class="st0" d="M29.7,6.8c0,1.3-0.4,2.5-0.8,3.7c-0.4,1.3-1,2.7-1.5,4c-0.5,1.1-0.5,2.2-0.4,3.3c0.1,1.6,0.4,3.3,0.4,4.9
		c0,1-0.1,2-0.4,3c-0.4,1.2-1.1,2.2-2,3.2c-0.7,0.8-1.5,1.5-2.4,2.1c-0.8,0.6-1.9,0.6-2.7,0c-0.5-0.4-0.6-0.8-0.5-1.4
		c0.3-1.5,0.5-3,0.4-4.5c0-1.3-0.3-2.6-0.9-3.8c-0.5-0.9-1.1-1.7-2-2.5c-0.1-0.1-0.2-0.2-0.3-0.2c-0.2-0.1-0.3-0.3-0.3-0.5
		c0-5.4,0-10.8,0-16.2c0-0.2,0.1-0.2,0.2-0.3c0.6-0.1,1.2-0.4,1.9-0.6c1.1-0.4,2.2-0.6,3.5-0.6c1.6,0,3.1,0.4,4.5,1
		c1,0.5,1.9,1.1,2.5,1.9c0.5,0.7,0.7,1.4,0.8,2.1C29.7,6,29.7,6.4,29.7,6.8z"/>
	<path class="st1" d="M1.3,5.6c0.1-0.7,0.3-1.4,0.8-2.1c0.6-0.9,1.5-1.5,2.5-1.9c1.4-0.6,2.9-1,4.5-1c1.2,0,2.3,0.2,3.5,0.6
		c0.6,0.2,1.2,0.4,1.9,0.6c0.2,0,0.2,0.1,0.2,0.3c0,5.4,0,10.8,0,16.2c0,0.2,0,0.4-0.3,0.5c-0.1,0.1-0.2,0.2-0.3,0.2
		c-0.9,0.7-1.5,1.5-2,2.5c-0.6,1.2-0.9,2.5-0.9,3.8c-0.1,1.5,0.1,3,0.4,4.5c0.1,0.5,0,1-0.5,1.4c-0.8,0.6-1.8,0.6-2.7,0
		c-0.9-0.6-1.7-1.3-2.4-2.1c-0.9-1-1.6-2-2-3.2c-0.3-1-0.4-2-0.4-3c0-1.6,0.2-3.3,0.4-4.9C4,16.7,4,15.6,3.5,14.5
		c-0.6-1.3-1.1-2.6-1.5-4C1.6,9.3,1.2,8.1,1.2,6.8C1.2,6.4,1.2,6,1.3,5.6z"/>
</g>
</svg>
