<?xml version="1.0" encoding="utf-8"?>
<!-- Generator: Adobe Illustrator 21.0.0, SVG Export Plug-In . SVG Version: 6.00 Build 0)  -->
<svg version="1.1" id="Layer_1" xmlns="http://www.w3.org/2000/svg" xmlns:xlink="http://www.w3.org/1999/xlink" x="0px" y="0px"
	 viewBox="0 0 989 1021" style="enable-background:new 0 0 989 1021;" xml:space="preserve">
<style type="text/css">
	.st0{fill:#75C4BF;}
	.st1{fill:#FFFFFF;}
</style>
<g>
	<path class="st0" d="M484.4,964.3C235.9,961.3,33.8,758.1,37,505.8C40.2,258.2,243.5,56.6,496,59.9
		c247.7,3.3,448.2,204.8,446.7,455C941.2,765.8,736,966.9,484.4,964.3z M441.3,673.3c0.6-0.1,1-0.5,1.4-1c3.2-3.8,0-7.5-0.2-11.1
		c-0.1-1.4-1.5-1.9-2.7-0.4c-0.5,0.6-0.5,1.8-1.9,1.6c-0.3-2-0.2-4.4,1.5-5.1c1.9-0.7,4.7-0.7,5.4,2.5c0.2,0.9,0.8,1.9,2.3,0.9
		c-1.1-1.8-1.8-2.9,1-4.4c2.6-1.4,3.2-6.9,2.3-8.2c-2.4-3.3-0.5-5.6,0-8.3c0.2-0.8,0.2-1.6,1.1-1.6c0.8-0.1,1.4,0.5,1.7,1.2
		c0.4,0.9,0.4,2.4,1.7,1.9c1.4-0.5,0.2-1.7,0-2.6c-0.6-2.7,1.4-3.9,3-5.1c2-1.5,0.9,2,2.6,1.6c1.4-3.2,2.7-6.5,0.7-10.2
		c-0.8-1.5-0.1-2.2,1.6-2.9c2.3-0.9,5.6-1.1,5.7-4.8c0-0.7,0.8-0.9,1.4-0.9c3,0.1,3-2,2.9-4.1c0-1-0.2-2.5,0.4-2.9
		c2.8-2,0.5-5.5,2.5-7.7c0.4-0.5,0-1.5-0.9-1.8c-1.1-0.4-2.4-1-1.7-2.3c0.9-1.5,2.1-0.5,3.1,0.3c0.3,0.2,0.7,0.3,1,0.4
		c1.8,0.2,4.4-0.7,5.3,1.1c1.3,2.5-2.3,2.5-3.2,4.1c-0.8,1.6-2.2,3.4-0.8,4.7c1.2,1.1,2-1.2,3.1-1.9c0.4-0.3,0.7-0.7,1.1-1
		c1.7-1.8,6-2.6,2.2-6.4c-0.3-0.3-0.1-1.4,0.2-1.8c1.6-2,1.2-4.3,1.2-6.5c0-76.6,0-153.2,0-229.8c0-27.9,0-55.7,0-83.6
		c0-3.8-2.8-8.4-6.1-8.7c-4.2-0.4-5.9-3.1-7.5-6.3c-0.7-1.5-1.6-2.2-3.6-1.7c-3.1,0.8-5.8,0-7.9-2.7c-2.1-2.7-4.5-2.2-5.7,0.9
		c-1,2.6-2.5,2.5-4.3,1c-0.9-0.8-1.5-1.9-2.2-2.9c3.6-1.4,3.6-1.4,0.9-3.6c-0.4-0.3-0.8-0.5-0.6-1.1c0.9-2.9-1.2-2.8-3.1-3.5
		c-3.6-1.2-7.1,0.7-10.6-0.5c-1.8-0.6-3.4-1-5.3,0c-2.3,1.3-3-1.5-4.5-2.4c-2.2-1.3,1.7-1.3,0.5-3c-2.1,0-4.4,0-6.7,0
		c-0.8,0-1.6,0.3-1.8,1.1c-0.3,1,0.7,1.2,1.2,1.6c0.5,0.3,1.2,0.5,0.9,1.4c-0.2,0.1-0.4,0.3-0.6,0.4c-5.5,0.5-11.2-2.2-16.6,0.7
		c-0.6,0.3-1.6-0.1-1.6-1.1c-0.3-2.7-2.2-2.5-4.1-2.6c-4.9-0.3-10,1.1-14.7-1.4c-0.6-0.3-1.7-0.2-2.2,0.2c-2.2,1.9-4.7,1.1-7.1,1.3
		c-1.3,0.1-2.9-0.5-3.8,1s1.6,1.7,1.3,3.1c-3.3,0.7-4.4,0.6-4.4-0.2c0.3-3.8-1.5-0.9-2.3-0.8c-0.8,0.1-1.7,0.6-2.5,0.6
		c-3.8-0.1-6.4,0.9-9,3.6c-0.2,0.2-0.7,0.4-1,0.3c-3.7-1.2-6.1,2.9-9.7,2.1c2.9,1.7,5.7,1.5,8.5,0.1c0.9-0.5,1.9-0.8,2.6,0.4
		c0.7,1.3-0.3,1.8-1.1,2.4c-0.7,0.5-1.4,1.2-2.3,1c-3.1-0.4-5.8,1.2-8.8,1.6c-3.1,0.5-6.1,2.3-9.3,0.1c-0.3-0.2-1.1,0.2-1.7,0.3
		c0.5,2.5-4.2,4.1-1,7.1c0.9,0.8,0.3,3.6-0.2,3.2c-3.1-2.6-4.6-1.3-6,1.7c0,0.1-0.5,0-0.7-0.1c-2.3-0.9-3.5,0-4.8,2.1
		c-0.9,1.4-2.9,4.2-4.4,0c-0.3-0.9-1.1-1-1.8-0.8c-1.3,0.4-1,1.5-0.8,2.5c1.6,6.1,1,7.1-5.2,8.6c-2.7,0.7-4.6,1.7-4.1,5
		c0.2,1.5-2.1,2.5-2.2,2.1c-0.9-3.6-3.6-1.4-5.4-2c0.3-0.5,0.5-1.1,0.9-1.6c9.5-12.5,21.7-21.5,35.3-29c19.4-10.8,40-18.1,62.3-19.5
		c21.6-1.4,42.2,2.8,62.2,10.7c10.5,4.1,20.9,8.7,31.4,12.8c4.7,1.8,5.4,1.1,5.4-3.8c0-57.5,0-115,0-172.5c0-4.9,0-4.9-4.9-4.8
		c-23,0.3-45.9,2.3-68.6,6.2c-34.6,5.8-68,15.8-100.1,29.9c-34.8,15.3-67,34.9-96.6,58.7c-39.2,31.5-72,68.6-98.3,111.4
		C95.5,330,77.5,375.7,67.4,424.6c-7.8,37.9-10.3,76.1-8,114.7c1.8,29.2,6.5,58,14.2,86.2C88.1,678.7,112,727.1,145.2,771
		c20.9,27.7,44.9,52.5,71.7,74.5c24.1,19.8,50,36.8,77.8,50.9c37.7,19.1,77.5,32.4,119.2,39.7c24,4.2,48.2,6.5,72.7,6.6
		c2.8,0,3.6-0.7,3.6-3.6c-0.1-110.4-0.1-220.7-0.1-331.1c0-1.4,0.3-3-1-4.3c-8,6.5-15,13.9-21,22.3c-21.3,29.5-31.7,62.7-33.7,98.9
		c-1,18.7-0.8,37.4,0.7,56.2c1.2,15.4,2.8,30.8,5.5,46.1c1.6,8.6,0.7,16.5-3.9,24.1c-8,13.3-28,18.2-40.7,9.7c2.5,0,5.2-0.9,7.3,0.5
		c2,1.2,3.7,1,5.6,0.2c2-0.9,4-1.1,6.1-0.2c5.1,2.3,9.5-0.3,9.8-5.7c0.1-1.1,0.2-2.1-0.1-3.3c-0.3-1-0.6-2.4,0.5-3.1
		c1.2-0.8,2.5-0.5,3.8,0.2c3.8,1.9,8.5-1.4,8.1-5.5c-0.3-3.3,0.1-4.7,2.1-7.6c0.4-0.6,0.3-1.2-0.1-1.7c-0.6-0.8-1-1.7-1-2.7
		c-0.6-8.4-0.4-16.9-4.2-24.8c-1.5-3-1.4-6.8-2.3-10.1c-0.6-2.2-0.3-3.9,2-5.3c-5.8-1.2-8.1-5-5.1-8c2.8-2.9,2.5-6.7,3.5-10.1
		c0.2-0.6,0.1-1.8-0.4-2.1c-4.3-2.9-3.5-7.5-4.1-11.7c-0.7-5.1,2.3-9.6,1.6-14.7c-0.4-2.4,0-4.8,0.8-7c1.1-2.9,0.5-5.6-0.2-8.4
		c-0.2-0.8-0.5-2.2-1.4-1.9c-3.7,1.5-2-1.5-2.2-2.7c-0.4-2.1,0.8-2.1,2.4-1.7c1.8,0.4,1.9-0.9,2-2.3c0.2-2.6-1.3-5.3,0.1-7.7
		c1.6-2.8,1.2-5.7,1.4-8.7c0.2-2.8,0-5.9,2.4-7.9c1.8-1.6,2.2-3.4,2.1-5.7c-0.1-3.9-0.6-8,2.9-11.2c-1.2-0.6-3.8,0.3-2.7-1.9
		c1.9-4,1.7-8.1,1.3-12.3c-0.2-2.2,1-2.3,2.5-1.3c1.4,1,2.3,2.7,1.3,4.1c-1,1.6-0.6,3.1-0.6,5.5c-0.4-0.3,0.3-0.9-0.5-0.7
		c-0.5,0.1-0.9,0.3-1,0.9c0,0.5,0,1.1,0.7,0.9C440.9,675,441.1,674.4,441.3,673.3z M709.3,365.4c0.5-7.4-0.1-15.7-1.1-24
		c-1.7-14.9-5.8-29.1-13.1-42.2c-9.7-17.3-24-29.8-41-39.4c-22.6-12.8-46.6-20.8-72.9-20.7c-19.7,0.1-38.3,5-56.4,12
		c-10.1,3.9-19.8,9-30.3,11.8c-3,0.8-4,2-4,5.2c0.1,109.5,0.1,219,0,328.5c0,4.2,0.7,7.3,4.6,9.5c2.1,1.2,3.9,3.2,5.6,4.9
		c14.2,14.3,24.2,31.3,32.2,49.7c10.6,24.2,13.9,49.9,14.7,76c0.9,30.8-1.7,61.4-6.9,91.7c-1.8,10.6,0.7,20.2,8.5,27.8
		c12.3,12,29.7,11.5,43.4-0.9c14.4-13,27.3-27.4,38.8-43c14.4-19.7,25.9-40.8,32.6-64.4c5.6-19.7,7.1-40,7.1-60.4
		c0.1-33.2-3.9-66.1-5.8-99.1c-1.3-22.9-0.9-45.5,6.6-67.7c8.9-26.6,17.9-53.2,25.2-80.3C703.4,416.1,708.5,391.6,709.3,365.4z
		 M406.7,241.3L406.7,241.3c-1.2,0-2.5-0.1-3.7,0c-0.7,0-1.7-0.2-1.8,0.8c-0.2,0.9,0.7,1.2,1.4,1.5c2.9,1.2,5.9,0.7,8.8,0.7
		c0.9,0,1.3-0.6,1.3-1.5s-0.6-1.4-1.4-1.4C409.7,241.3,408.2,241.3,406.7,241.3z M487.9,271.1c1.1-0.1,1.6-1,1.2-1.5
		c-1.2-1.6-3.3-2.4-3.6-4.7c0-0.2-0.9,0.1-1.1,0.6c-0.4,1.3,0.2,2.4,0.8,3.4C485.9,269.9,486.7,270.9,487.9,271.1z M478.4,264.5
		c0.8-0.1,1.9,0,1.4-1.1c-0.6-1.3-1.3-2.8-3.2-2.6c-0.8,0.1-2.1-0.3-2,0.9C474.8,264,476.9,263.9,478.4,264.5z M432.3,761.9
		c-0.3-1,0.6-2.7-1.2-3c-1.4-0.2-1.9,1-1.8,2.2c0.2,1.3,0.5,3,2,3.1C432.7,764.4,432.1,762.8,432.3,761.9z M318.5,267.8
		c1.5,0.7,2.5,0.6,3.1-0.6c0.1-0.2-0.2-0.9-0.3-0.9C320.1,266,319.2,266.4,318.5,267.8z M427.6,854.9c-0.8-0.1-1.2,0.3-1.2,1
		s0.6,1,1.3,1c0.7,0,1.3-0.2,1.2-0.9C428.8,855.4,428.3,855,427.6,854.9z M388.6,242.2c-1.1-1.3-2.1-1-3.4-0.3
		C386.4,243.1,387.3,242.9,388.6,242.2z M305.8,280c0.7-0.4,1.2-0.9,1-1.8c-0.1-0.6-0.5-0.8-1.1-0.6c-0.6,0.3-0.9,0.8-0.9,1.5
		C304.9,279.7,305.2,280,305.8,280z M451.9,644.1c-0.5,0-1.1,0-1.2,0.6c-0.2,0.7,0.5,0.8,0.9,0.8s1.1-0.3,1.2-0.5
		C453,644.2,452.3,644.2,451.9,644.1z M477,612.2c-1.2-0.4-1.8,0.2-2.4,0.8c-0.1,0.1,0.3,0.7,0.4,0.7
		C475.9,613.6,476.7,613.4,477,612.2z M324.4,263.8c-0.6,0-1.2,0.1-1.3,0.7c-0.1,0.7,0.5,0.8,1,0.7c0.5-0.1,1-0.3,1-0.9
		C325.1,264,324.6,263.9,324.4,263.8z M302.8,280.7c-0.6-0.2-0.8,0.1-0.9,0.4c0,0.3,0.1,0.8,0.3,0.9c0.5,0.3,0.9,0,0.9-0.6
		C303.1,281.2,302.9,280.9,302.8,280.7z M430.5,245.7c0.2-0.3,0.6-0.5,0.6-0.8c0-0.2-0.4-0.6-0.6-0.6c-0.5-0.1-1,0.2-0.8,0.8
		C429.7,245.4,430.2,245.5,430.5,245.7z M454.3,252.8c0.2-0.6-0.1-0.8-0.4-0.9c-0.3,0-0.8,0.1-0.9,0.3c-0.3,0.5,0,0.9,0.6,0.9
		C453.8,253.1,454.1,252.9,454.3,252.8z M434.9,706c-0.2-0.1-0.4-0.2-0.6-0.3c-0.1,0.2-0.3,0.5-0.2,0.6c0.1,0.1,0.4,0.2,0.6,0.3
		C434.8,706.5,434.8,706.3,434.9,706z M465.8,256.6c-0.1,0.2-0.2,0.4-0.3,0.6c0.2,0.1,0.5,0.3,0.6,0.2c0.1-0.1,0.2-0.4,0.3-0.6
		C466.2,256.7,466,256.7,465.8,256.6z"/>
	<path class="st1" d="M396.1,860.9c12.7,8.6,32.8,3.7,40.7-9.7c4.5-7.6,5.4-15.6,3.9-24.1c-2.8-15.2-4.4-30.6-5.5-46.1
		c-1.4-18.7-1.7-37.4-0.7-56.2c2-36.1,12.4-69.3,33.7-98.9c6-8.3,12.9-15.8,21-22.3c1.3,1.3,1,2.8,1,4.3c0,110.4,0,220.7,0.1,331.1
		c0,2.8-0.8,3.6-3.6,3.6c-24.4,0-48.6-2.4-72.7-6.6c-41.7-7.3-81.5-20.6-119.2-39.7c-27.8-14.1-53.7-31.1-77.8-50.9
		c-26.8-22-50.8-46.8-71.7-74.5c-33.2-43.9-57.1-92.4-71.6-145.5c-7.7-28.3-12.4-57-14.2-86.2c-2.3-38.6,0.2-76.8,8-114.7
		c10.1-48.9,28.1-94.6,54.3-137.1c26.3-42.8,59.2-79.8,98.3-111.4c29.6-23.9,61.8-43.5,96.6-58.7c32.1-14.1,65.5-24.1,100.1-29.9
		c22.7-3.8,45.6-5.8,68.6-6.2c4.9-0.1,4.9-0.1,4.9,4.8c0,57.5,0,115,0,172.5c0,4.9-0.7,5.6-5.4,3.8c-10.5-4.1-20.9-8.6-31.4-12.8
		c-20-7.9-40.7-12-62.2-10.7c-22.3,1.4-42.9,8.7-62.3,19.5c-13.5,7.5-25.8,16.5-35.3,29c-0.4,0.5-0.6,1.1-0.9,1.6v0.1
		c-1.4,0.6-1.9,2-2.6,3.1c-12.6,18.9-17.6,40-18.3,62.3c-0.9,28.2,4.4,55.6,11.4,82.7c6.3,24.3,14.6,47.9,22.2,71.8
		c4.1,12.9,8.7,25.8,10.3,39.4c1.3,11.1,0.9,22.2,0.5,33.3c-1.2,27.6-4.3,55-5.5,82.6c-1.3,29.6-1.1,58.9,7.8,87.6
		c2.7,8.7,5.6,17.3,10.4,25.1c0.2,0.7,0.3,1.5,0.7,2.1c13,25.9,30.5,48.5,51.1,68.7C385.2,852.6,389.8,857.8,396.1,860.9z"/>
	<path class="st1" d="M709.3,365.4c-0.8,26.2-5.8,50.8-12.3,75c-7.3,27.1-16.2,53.7-25.2,80.3c-7.5,22.2-7.9,44.8-6.6,67.7
		c1.9,33,5.9,65.9,5.8,99.1c-0.1,20.4-1.5,40.7-7.1,60.4c-6.7,23.6-18.3,44.7-32.6,64.4c-11.4,15.7-24.4,30-38.8,43
		c-13.7,12.4-31.1,12.9-43.4,0.9c-7.8-7.7-10.3-17.2-8.5-27.8c5.2-30.4,7.8-60.9,6.9-91.7c-0.7-26.1-4.1-51.7-14.7-76
		c-8-18.3-18-35.4-32.2-49.7c-1.8-1.8-3.5-3.7-5.6-4.9c-3.9-2.2-4.6-5.3-4.6-9.5c0.1-109.5,0.1-219,0-328.5c0-3.2,1-4.4,4-5.2
		c10.5-2.9,20.2-7.9,30.3-11.8c18.2-7.1,36.7-11.9,56.4-12c26.3-0.2,50.3,7.9,72.9,20.7c17.1,9.6,31.3,22.1,41,39.4
		c7.4,13.2,11.4,27.4,13.1,42.2C709.2,349.6,709.7,358,709.3,365.4z"/>
	<path class="st0" d="M272,341.4c1.7-14.8,5.7-29,13.1-42.2c9.7-17.3,23.9-29.8,41-39.4c22.6-12.8,46.6-20.9,72.9-20.7
		c19.7,0.1,38.2,4.9,56.4,12c10.1,3.9,19.8,8.9,30.3,11.8c3,0.8,4,2,4,5.2c-0.1,109.5-0.1,219,0,328.5c0,4.2-0.7,7.3-4.6,9.5
		c-2.1,1.2-3.8,3.1-5.6,4.9c-14.2,14.3-24.2,31.4-32.2,49.7c-10.6,24.3-14,49.9-14.7,76c-0.9,30.8,1.7,61.3,6.9,91.7
		c1.8,10.6-0.7,20.1-8.5,27.8c-12.3,12-29.7,11.5-43.4-0.9c-14.4-13-27.4-27.3-38.8-43c-14.3-19.7-25.9-40.8-32.6-64.4
		c-5.6-19.7-7-40-7.1-60.4c-0.1-33.2,3.9-66.1,5.8-99.1c1.3-22.9,0.9-45.5-6.6-67.7c-9-26.6-17.9-53.2-25.2-80.3
		c-6.5-24.2-11.5-48.8-12.3-75C270.4,358,270.9,349.6,272,341.4z"/>
	<path class="st0" d="M396.1,860.9c-6.3-3-10.9-8.2-15.7-13c-20.6-20.3-38.1-42.8-51.1-68.7c-0.3-0.6-0.4-1.4-0.7-2.1
		c0.8-2.5-1.7-4.9-1-6.6c1.6-4,0.8-6.6-2.6-8.9c-0.7-0.5-0.5-1.3,0.1-1.5c3.5-1.4,2.6-4.7,3.3-7.3c0.4-1.4-0.5-2.2-1.5-2.6
		c-1.3-0.4-1.6,0.8-2.1,1.6c-0.9,1.4-0.1,3.6-2.1,4.4c-1.2-1.3-0.1-2.4,0-3.6c0.1-1.3,0.7-3-1-3.7c-3.8-1.5-4-5.4-4.7-8.3
		c-2.1-8.7-2.5-17.6-1.1-26.6c0.3-2.1,1.3-5.2-2.9-5.3c-1.1,0-0.6-1.7-0.6-2.6c0-6.1,0-12.2,0-18.4c0-10.4,0-20.7,0-31.1
		c0-0.9-0.4-2.2,0.8-2.6c1.3-0.4,1.3,0.8,1.5,1.6c0.2,0.7,0.6,1.2,1.3,0.9c0.5-0.2,0.9-0.8,1.2-1.3c0.6-1.2,0-2.6-0.7-3.1
		c-2.8-2.3-1.3-4.7-0.3-6.9c0.5-1.2,1.1-2.6,0.6-3.6c-2.7-5.1-0.8-10.5-1.3-15.7c-0.8-9,2.5-17.9,1.4-27c-0.1-0.9,0-1.8,0.9-2.3
		c2.1-1.2,2.1-3.2,2.1-5.2c0-11.7,0.1-23.5-0.1-35.2c0-2.9,1.8-6.6-2.6-8.2c-0.2-0.1-0.3-0.7-0.3-1c0-5.2-0.4-10.2-2.9-15
		c-0.4-0.8-0.5-2.2,0.7-2.6c4.1-1.2,0.2-3.8,0.9-5.8c0.6-1.7-1.6-1.3-2.9-1.4c-0.8-0.1-1.8-0.5-1.7-1.6c0-0.6,0.5-0.8,1-0.8
		c3.1,0.2,3.3-1.8,3.3-4.1c0-2.1,0-4.2,0-6.4c0-2.7,1-6.1-3.8-5.7c-0.4,0-0.9-0.5-1.1-0.9c-1.3-2.6-3.2-2.1-5-0.8
		c-1.6-4.7-1.9-9.3-2-13.9c0-1.2-0.3-2.7,0.2-3.7c4-7.1-1.3-12.7-2.7-19c0.1,3.9-2,8,1,11.7c0.4,0.4,0.8,1.2,0.1,1.6
		c-1.1,0.7-2.4,0.5-3.6,0.2c-1.1-0.2-0.7-1.1-0.3-1.7c1.4-2.1,0.8-3.3-1.4-4.8c-1.2-0.8-5.1-3.1-0.2-4.8c0.7-0.2,0.7-0.9,0.7-1.6
		c-0.1-0.6-0.5-0.8-1-0.9c-3.1-0.7-4.8-4-3.9-7.1c1.2-4.2,0.7-8.4-0.8-12.4c-0.5-1.3-1.2-2.1-2.8-1.1c-1.8,1.2-2.1-0.6-1.7-1.4
		c1.8-3.3,0.9-7,1.9-10.4c0.4-1.3,2-2.8,0-3.7c-1.8-0.8-2.9,0.7-3.4,2.5c-0.2,0.5,0,1.3-0.9,1.3c-0.8-0.5-0.8-1.5-0.5-2
		c2.6-4.9,0.1-8.5-3.1-11.8c-1-1.1-1.2-2.1-1.3-3.6c-0.4-5,1.3-10.3-1.5-15.2c-0.7-1.3-0.3-2.8,1.4-3.7c2-1.1,2.1-2.7-0.1-3.7
		c-0.9-0.4-1.6-0.8-1.5-1.8c0.3-2.5-0.5-4.5-2.4-6.4c-1-1-1.3-2.6,0.4-3.8c2.8-1.9,2.7-5.1-0.2-7c-1.7-1.1-2.6-6.3-1.4-6.2
		c2.9,0.3,1.9-1.7,2-2.9c0.1-1.7-0.1-3.5,0.1-5.2c0.1-1.7,0-3.7,2.9-3c1.7,0.4,1.4-1.2,1.6-2.3c0.7-5.3-0.1-10.6,0-15.9
		c0-0.6,0-1.3-1.1-1.3c-1.3,5.6,1,11.6-1.4,17.1c-0.4,0-0.8,0-1.2,0c0-9,0-17.9,0-27.4c1.1,2.1,1.1,4.5,3.7,6.2
		c0.1-5.4-2.4-10.1-0.3-15c0.6-1.5,0.1-3.2,2.1-4.1c1.7-0.8,3.1-2.1,3.6-4.1c0.1-0.6,0.2-1.6,0.9-1.3c5.4,1.8,3.8-1.9,3.6-4.5
		c0-0.5,0-1.1,0.2-1.5c2.6-4.1,0.7-8.9,1.9-13.3v-0.1c1.8,0.6,4.5-1.6,5.4,2c0.1,0.4,2.4-0.6,2.2-2.1c-0.4-3.3,1.4-4.3,4.1-5
		c6.2-1.5,6.7-2.5,5.2-8.6c-0.2-1-0.6-2,0.8-2.5c0.8-0.3,1.5-0.1,1.8,0.8c1.5,4.1,3.5,1.4,4.4,0c1.3-2,2.5-3,4.8-2.1
		c0.2,0.1,0.7,0.1,0.7,0.1c1.3-3,2.8-4.3,6-1.7c0.5,0.4,1.1-2.4,0.2-3.2c-3.2-3,1.5-4.6,1-7.1c0.6-0.1,1.4-0.5,1.7-0.3
		c3.1,2.2,6.2,0.4,9.3-0.1c2.9-0.4,5.7-2,8.8-1.6c0.9,0.1,1.6-0.5,2.3-1c0.8-0.6,1.8-1.1,1.1-2.4c-0.6-1.2-1.6-0.9-2.6-0.4
		c-2.8,1.4-5.6,1.6-8.5-0.1c3.6,0.9,6-3.3,9.7-2.1c0.3,0.1,0.8,0,1-0.3c2.6-2.6,5.2-3.6,9-3.6c0.8,0,1.7-0.5,2.5-0.6
		s2.6-3.1,2.3,0.8c-0.1,0.8,1.1,0.9,4.4,0.2c0.3-1.3-2.3-1.6-1.3-3.1c0.9-1.4,2.5-0.8,3.8-1c2.4-0.2,5,0.6,7.1-1.3
		c0.4-0.4,1.6-0.4,2.2-0.2c4.7,2.5,9.8,1.1,14.7,1.4c1.9,0.1,3.9-0.1,4.1,2.6c0.1,0.9,1,1.4,1.6,1.1c5.4-2.9,11.1-0.3,16.6-0.7
		c0.2,0,0.4-0.2,0.6-0.4c0.3-0.8-0.4-1-0.9-1.4c-0.6-0.4-1.5-0.6-1.2-1.6c0.2-0.8,1-1.1,1.8-1.1c2.3,0,4.7,0,6.7,0
		c1.3,1.6-2.7,1.6-0.5,3c1.5,0.9,2.2,3.7,4.5,2.4c1.9-1,3.6-0.6,5.3,0c3.5,1.2,7-0.8,10.6,0.5c1.9,0.7,4,0.6,3.1,3.5
		c-0.2,0.6,0.2,0.8,0.6,1.1c2.8,2.2,2.7,2.2-0.9,3.6c0.8,1,1.3,2.1,2.2,2.9c1.7,1.5,3.3,1.6,4.3-1c1.2-3.1,3.6-3.6,5.7-0.9
		c2.1,2.8,4.8,3.6,7.9,2.7c1.9-0.5,2.8,0.2,3.6,1.7c1.6,3.2,3.2,5.9,7.5,6.3c3.3,0.3,6.1,5,6.1,8.7c0,27.9,0,55.7,0,83.6
		c0,76.6,0,153.2,0,229.8c0,2.2,0.5,4.5-1.2,6.5c-0.3,0.4-0.5,1.5-0.2,1.8c3.8,3.8-0.5,4.6-2.2,6.4c-0.4,0.4-0.7,0.8-1.1,1
		c-1.1,0.7-1.9,3-3.1,1.9c-1.4-1.3,0-3.2,0.8-4.7c0.9-1.6,4.5-1.6,3.2-4.1c-0.9-1.7-3.4-0.9-5.3-1.1c-0.4,0-0.8-0.1-1-0.4
		c-1-0.8-2.2-1.9-3.1-0.3c-0.8,1.3,0.6,1.9,1.7,2.3c0.9,0.3,1.3,1.3,0.9,1.8c-2,2.2,0.3,5.7-2.5,7.7c-0.5,0.4-0.4,1.9-0.4,2.9
		c0,2.1,0.1,4.2-2.9,4.1c-0.6,0-1.4,0.2-1.4,0.9c-0.1,3.8-3.4,3.9-5.7,4.8c-1.7,0.7-2.4,1.4-1.6,2.9c2,3.7,0.7,7-0.7,10.2
		c-1.7,0.4-0.6-3.1-2.6-1.6c-1.6,1.2-3.6,2.5-3,5.1c0.2,0.9,1.3,2.1,0,2.6s-1.3-1.1-1.7-1.9c-0.3-0.7-0.9-1.3-1.7-1.2
		c-1,0.1-1,0.9-1.1,1.6c-0.6,2.7-2.4,5,0,8.3c0.9,1.2,0.3,6.7-2.3,8.2c-2.8,1.6-2.1,2.6-1,4.4c-1.4,1-2.1-0.1-2.3-0.9
		c-0.7-3.2-3.5-3.2-5.4-2.5c-1.7,0.6-1.8,3.1-1.5,5.1c1.4,0.2,1.4-1,1.9-1.6c1.2-1.5,2.7-0.9,2.7,0.4c0.2,3.7,3.4,7.4,0.2,11.1
		c-0.4,0.5-0.8,0.9-1.4,1c0.2-1.6-0.3-3.1,0.8-4.7c1-1.5,0.1-3.1-1.3-4.1c-1.5-1-2.7-1-2.5,1.3c0.3,4.2,0.6,8.2-1.3,12.3
		c-1.1,2.2,1.5,1.3,2.7,1.9c-3.5,3.2-3,7.2-2.9,11.2c0.1,2.2-0.3,4.1-2.1,5.7c-2.4,2.1-2.1,5.2-2.4,7.9c-0.3,2.9,0.2,5.9-1.4,8.7
		c-1.4,2.4,0.1,5.1-0.1,7.7c-0.1,1.4-0.2,2.7-2,2.3c-1.7-0.4-2.8-0.3-2.4,1.7c0.2,1.1-1.5,4.1,2.2,2.7c0.9-0.3,1.2,1.1,1.4,1.9
		c0.7,2.8,1.3,5.5,0.2,8.4c-0.8,2.2-1.2,4.6-0.8,7c0.8,5-2.3,9.6-1.6,14.7c0.6,4.2-0.1,8.7,4.1,11.7c0.4,0.3,0.6,1.5,0.4,2.1
		c-1.1,3.4-0.7,7.2-3.5,10.1c-3,3-0.7,6.8,5.1,8c-2.2,1.3-2.6,3.1-2,5.3c0.9,3.3,0.9,7.1,2.3,10.1c3.8,8,3.6,16.4,4.2,24.8
		c0.1,1.1,0.5,1.9,1,2.7c0.4,0.5,0.5,1.1,0.1,1.7c-2,2.9-2.4,4.4-2.1,7.6c0.4,4.1-4.3,7.4-8.1,5.5c-1.4-0.7-2.7-1-3.8-0.2
		c-1,0.7-0.7,2.1-0.5,3.1c0.3,1.1,0.2,2.2,0.1,3.3c-0.4,5.4-4.7,8-9.8,5.7c-2.1-0.9-4.1-0.8-6.1,0.2c-1.9,0.9-3.6,1.1-5.6-0.2
		C401.2,860,398.5,860.9,396.1,860.9z M389.3,248.1c3.2,0.7,6.3,0.9,9.5-0.2C395.6,247.2,392.4,246.9,389.3,248.1z"/>
	<path class="st0" d="M406.7,241.3c1.5,0,3,0,4.5,0c0.8,0,1.4,0.5,1.4,1.4s-0.4,1.5-1.3,1.5c-3,0-6,0.5-8.8-0.7
		c-0.7-0.3-1.5-0.5-1.4-1.5c0.2-1,1.1-0.7,1.8-0.8C404.3,241.2,405.5,241.3,406.7,241.3L406.7,241.3z"/>
	<path class="st0" d="M487.9,271.1c-1.2-0.2-2.1-1.2-2.7-2.2s-1.2-2.2-0.8-3.4c0.2-0.5,1.1-0.8,1.1-0.6c0.3,2.3,2.4,3.2,3.6,4.7
		C489.5,270.2,489,271,487.9,271.1z"/>
	<path class="st0" d="M478.4,264.5c-1.5-0.6-3.6-0.5-3.8-2.8c-0.1-1.2,1.2-0.9,2-0.9c1.9-0.2,2.6,1.3,3.2,2.6
		C480.3,264.4,479.2,264.4,478.4,264.5z"/>
	<path class="st0" d="M432.3,761.9c-0.2,0.9,0.4,2.5-0.9,2.4c-1.5-0.1-1.8-1.8-2-3.1c-0.2-1.2,0.4-2.4,1.8-2.2
		C432.9,759.2,432,760.9,432.3,761.9z"/>
	<path class="st0" d="M318.5,267.8c0.7-1.4,1.6-1.8,2.8-1.5c0.2,0,0.4,0.7,0.3,0.9C321,268.3,320,268.4,318.5,267.8z"/>
	<path class="st0" d="M427.6,854.9c0.7,0.1,1.2,0.5,1.3,1.1c0.1,0.8-0.6,1-1.2,0.9c-0.7,0-1.2-0.3-1.3-1
		C426.4,855.2,426.9,854.8,427.6,854.9z"/>
	<path class="st0" d="M388.6,242.2c-1.2,0.7-2.2,0.9-3.4-0.3C386.5,241.2,387.4,240.9,388.6,242.2z"/>
	<path class="st0" d="M305.8,280c-0.6,0-0.9-0.3-1-0.8c0-0.7,0.3-1.2,0.9-1.5c0.5-0.2,1,0,1.1,0.6C307,279.1,306.5,279.6,305.8,280z
		"/>
	<path class="st0" d="M451.9,644.1c0.4,0.1,1.1,0.1,0.9,0.8c-0.1,0.3-0.7,0.5-1.2,0.5c-0.4,0-1.1-0.1-0.9-0.8
		C450.8,644.1,451.4,644,451.9,644.1z"/>
	<path class="st0" d="M477,612.2c-0.3,1.2-1.1,1.4-1.9,1.5c-0.1,0-0.5-0.7-0.4-0.7C475.2,612.4,475.8,611.8,477,612.2z"/>
	<path class="st0" d="M324.4,263.8c0.2,0.1,0.7,0.3,0.7,0.5c0.1,0.6-0.5,0.8-1,0.9s-1.1,0-1-0.7
		C323.2,263.8,323.8,263.8,324.4,263.8z"/>
	<path class="st0" d="M441.4,674.1c-0.3,0.4-0.5,0.9-0.8,1c-0.7,0.2-0.7-0.4-0.7-0.9c0-0.6,0.5-0.8,1-0.9
		C441.7,673.2,441,673.8,441.4,674.1z"/>
	<path class="st0" d="M302.8,280.7c0.1,0.2,0.3,0.5,0.3,0.8c0,0.5-0.4,0.9-0.9,0.6c-0.2-0.1-0.3-0.6-0.3-0.9
		C302,280.8,302.2,280.5,302.8,280.7z"/>
	<path class="st0" d="M430.5,245.7c-0.4-0.2-0.8-0.4-0.9-0.6c-0.2-0.6,0.3-0.8,0.8-0.8c0.3,0,0.6,0.4,0.6,0.6
		C431.1,245.2,430.8,245.5,430.5,245.7z"/>
	<path class="st0" d="M454.3,252.8c-0.2,0.1-0.5,0.3-0.8,0.3c-0.5,0-0.9-0.4-0.6-0.9c0.1-0.2,0.6-0.3,0.9-0.3
		C454.2,252,454.5,252.2,454.3,252.8z"/>
	<path class="st0" d="M434.9,706c-0.1,0.2-0.2,0.4-0.3,0.6c-0.2-0.1-0.5-0.1-0.6-0.3s0.1-0.4,0.2-0.6
		C434.5,705.9,434.7,706,434.9,706z"/>
	<path class="st0" d="M465.8,256.6c0.2,0.1,0.4,0.2,0.6,0.3c-0.1,0.2-0.1,0.5-0.3,0.6c-0.2,0.1-0.4-0.1-0.6-0.2
		C465.6,257,465.7,256.8,465.8,256.6z"/>
	<path class="st0" d="M292.6,289.1c-1.2,4.3,0.8,9.1-1.9,13.3c-0.2,0.4-0.3,1-0.2,1.5c0.2,2.6,1.8,6.3-3.6,4.5
		c-0.7-0.2-0.8,0.7-0.9,1.3c-0.4,2-1.9,3.3-3.6,4.1c-2,1-1.5,2.7-2.1,4.1c-2.1,4.9,0.4,9.6,0.3,15c-2.5-1.6-2.5-4.1-3.7-6.2
		c0,9.4,0,18.4,0,27.4c0.4,0,0.8,0,1.2,0c2.4-5.5,0.1-11.5,1.4-17.1c1.1,0,1.1,0.7,1.1,1.3c0,5.3,0.8,10.6,0,15.9
		c-0.1,1.1,0.1,2.7-1.6,2.3c-2.9-0.7-2.8,1.3-2.9,3s0.1,3.5-0.1,5.2c-0.1,1.2,0.9,3.2-2,2.9c-1.2-0.1-0.2,5.1,1.4,6.2
		c2.9,1.9,3,5,0.2,7c-1.7,1.2-1.5,2.8-0.4,3.8c1.9,1.8,2.6,3.8,2.4,6.4c-0.1,1,0.5,1.4,1.5,1.8c2.2,1,2.2,2.6,0.1,3.7
		c-1.7,0.9-2.1,2.5-1.4,3.7c2.8,4.9,1.1,10.1,1.5,15.2c0.1,1.5,0.3,2.5,1.3,3.6c3.2,3.3,5.8,6.9,3.1,11.8c-0.3,0.5-0.3,1.5,0.5,2
		c0.9,0,0.8-0.8,0.9-1.3c0.5-1.8,1.6-3.3,3.4-2.5c2.1,0.9,0.4,2.3,0,3.7c-1,3.4,0,7.1-1.9,10.4c-0.4,0.8-0.1,2.6,1.7,1.4
		c1.6-1.1,2.3-0.2,2.8,1.1c1.6,4,2.1,8.2,0.8,12.4c-0.9,3,0.8,6.4,3.9,7.1c0.5,0.1,0.9,0.3,1,0.9c0.1,0.7,0,1.4-0.7,1.6
		c-5,1.7-1,4,0.2,4.8c2.2,1.4,2.7,2.6,1.4,4.8c-0.4,0.7-0.8,1.5,0.3,1.7c1.2,0.3,2.5,0.5,3.6-0.2c0.7-0.4,0.2-1.2-0.1-1.6
		c-3-3.7-0.9-7.8-1-11.7c1.4,6.2,6.8,11.9,2.7,19c-0.5,1-0.2,2.5-0.2,3.7c0.1,4.6,0.4,9.2,2,13.9c1.9-1.3,3.7-1.8,5,0.8
		c0.2,0.4,0.8,0.9,1.1,0.9c4.8-0.4,3.7,3,3.8,5.7c0,2.1,0,4.2,0,6.4c0,2.3-0.3,4.3-3.3,4.1c-0.6,0-1,0.1-1,0.8
		c0,1.1,0.9,1.6,1.7,1.6c1.3,0.1,3.6-0.2,2.9,1.4c-0.7,2,3.2,4.6-0.9,5.8c-1.2,0.4-1.1,1.8-0.7,2.6c2.5,4.7,2.9,9.8,2.9,15
		c0,0.4,0.1,1,0.3,1c4.5,1.6,2.6,5.4,2.6,8.2c0.2,11.7,0.1,23.5,0.1,35.2c0,2.1,0.1,4-2.1,5.2c-0.9,0.5-1,1.4-0.9,2.3
		c1.1,9.1-2.3,17.9-1.4,27c0.5,5.2-1.4,10.6,1.3,15.7c0.5,1-0.1,2.3-0.6,3.6c-0.9,2.3-2.5,4.7,0.3,6.9c0.7,0.6,1.2,1.9,0.7,3.1
		c-0.3,0.5-0.7,1.1-1.2,1.3c-0.7,0.3-1.1-0.2-1.3-0.9c-0.2-0.8-0.2-2-1.5-1.6c-1.2,0.4-0.8,1.7-0.8,2.6c0,10.4,0,20.7,0,31.1
		c0,6.1,0,12.2,0,18.4c0,0.9-0.5,2.6,0.6,2.6c4.3,0.1,3.3,3.2,2.9,5.3c-1.4,9-1,17.9,1.1,26.6c0.7,2.9,0.9,6.8,4.7,8.3
		c1.7,0.7,1.1,2.3,1,3.7c-0.1,1.1-1.2,2.3,0,3.6c2.1-0.8,1.3-3,2.1-4.4c0.5-0.8,0.8-2.1,2.1-1.6c1.1,0.4,1.9,1.2,1.5,2.6
		c-0.7,2.6,0.2,5.9-3.3,7.3c-0.6,0.2-0.8,1-0.1,1.5c3.4,2.2,4.2,4.9,2.6,8.9c-0.7,1.7,1.8,4.2,1,6.6c-4.8-7.8-7.7-16.5-10.4-25.1
		c-8.8-28.6-9-58-7.8-87.6c1.2-27.6,4.4-55,5.5-82.6c0.5-11.1,0.8-22.2-0.5-33.3c-1.6-13.6-6.1-26.4-10.3-39.4
		c-7.6-23.9-15.9-47.5-22.2-71.8c-7.1-27.1-12.3-54.5-11.4-82.7c0.7-22.3,5.7-43.5,18.3-62.3C290.8,291.1,291.3,289.8,292.6,289.1z
		 M309.4,517.7c3-1.4,5.2-6,4.3-8.3c-0.3-0.7-0.6-1-1.3-1.1c-0.7,0-1.3,0.2-1.4,0.9C310.4,512,309.9,514.8,309.4,517.7z
		 M290.1,455.3c1.7-2,0.8-3.6-0.7-5.1C289.6,451.9,289.8,453.6,290.1,455.3z M309.2,506.2c0-1-0.4-1.6-1.5-1.6c-0.7,0-1.2,0.3-1.3,1
		c-0.1,1.1,0.8,1.4,1.6,1.6C308.9,507.4,309.1,506.8,309.2,506.2z M301.2,488.6c0.7-1.4,0.9-2.4-0.6-3.6
		C300.4,486.4,299.8,487.4,301.2,488.6z M313,719.4c0.7-0.1,0.7-0.6,0.7-1.1s0-1.1-0.7-1.1s-0.7,0.6-0.7,1.1
		C312.3,718.8,312.4,719.3,313,719.4z M286.7,438.7c-0.3-0.2-0.5-0.6-0.8-0.6c-0.2,0-0.6,0.4-0.6,0.6c-0.1,0.5,0.2,1,0.8,0.8
		C286.4,439.5,286.5,439.1,286.7,438.7z M309.2,510.7c-0.3-0.2-0.5-0.6-0.8-0.6c-0.2,0-0.6,0.4-0.6,0.6c-0.1,0.5,0.2,1,0.8,0.8
		C308.9,511.5,309,511.1,309.2,510.7z M289.5,297.3c-0.2-0.1-0.5-0.3-0.6-0.2c-0.1,0.1-0.2,0.4-0.3,0.6c0.2,0.1,0.5,0.3,0.6,0.2
		C289.3,297.8,289.4,297.5,289.5,297.3z"/>
	<path class="st0" d="M389.3,248.1c3.1-1.2,6.3-0.9,9.5-0.2C395.6,249,392.5,248.8,389.3,248.1z"/>
	<path class="st0" d="M309.4,517.7c0.5-2.9,1-5.7,1.5-8.5c0.1-0.7,0.7-0.9,1.4-0.9c0.7,0,1.1,0.4,1.3,1.1
		C314.5,511.7,312.3,516.3,309.4,517.7z"/>
	<path class="st0" d="M290.1,455.3c-0.2-1.7-0.5-3.4-0.7-5.1C290.9,451.7,291.7,453.3,290.1,455.3z"/>
	<path class="st0" d="M309.2,506.2c-0.1,0.6-0.3,1.2-1.1,1c-0.8-0.2-1.7-0.6-1.6-1.6c0-0.7,0.6-1,1.3-1
		C308.8,504.6,309.2,505.1,309.2,506.2z"/>
	<path class="st0" d="M301.2,488.6c-1.4-1.2-0.8-2.2-0.6-3.6C302,486.2,301.9,487.2,301.2,488.6z"/>
	<path class="st0" d="M313,719.4c-0.6-0.1-0.7-0.6-0.7-1.1s0-1.1,0.7-1.1s0.7,0.6,0.7,1.1C313.7,718.8,313.7,719.3,313,719.4z"/>
	<path class="st0" d="M286.7,438.7c-0.2,0.4-0.4,0.8-0.6,0.9c-0.6,0.2-0.8-0.3-0.8-0.8c0-0.3,0.4-0.6,0.6-0.6
		C286.2,438.1,286.5,438.5,286.7,438.7z"/>
	<path class="st0" d="M309.2,510.7c-0.2,0.4-0.4,0.8-0.6,0.9c-0.6,0.2-0.8-0.3-0.8-0.8c0-0.3,0.4-0.6,0.6-0.6
		C308.7,510.1,309,510.5,309.2,510.7z"/>
	<path class="st0" d="M289.5,297.3c-0.1,0.2-0.1,0.5-0.3,0.6c-0.1,0.1-0.4-0.1-0.6-0.2c0.1-0.2,0.1-0.5,0.3-0.6
		C289,297,289.3,297.2,289.5,297.3z"/>
</g>
</svg>
