<?xml version="1.0" encoding="utf-8"?>
<!-- Generator: Adobe Illustrator 21.0.0, SVG Export Plug-In . SVG Version: 6.00 Build 0)  -->
<svg version="1.1" id="Layer_1" xmlns="http://www.w3.org/2000/svg" xmlns:xlink="http://www.w3.org/1999/xlink" x="0px" y="0px"
	 viewBox="0 0 989 1021" style="enable-background:new 0 0 989 1021;" xml:space="preserve">
<style type="text/css">
	.st0{fill:#75C4BF;}
	.st1{fill:#4C958F;}
	.st2{fill:#FFFFFF;stroke:#000000;stroke-width:5.1889;stroke-miterlimit:10;}
</style>
<g>
	<g>
		<path class="st0" d="M777.3,401.3c-10.4-80.5-90.8-140.7-150-151.5c-57-10.4-112-3.2-164.6,19.7c-11.9,5.2-22.9,6.2-35.3,2
			c-44.1-14.5-89.3-20.7-135.9-22.3c-72.7-2-133.9,51.4-154.1,111.6c-18.7,54.4-18.7,109-9.8,165.6c13.5,90.3,25.5,180.5,48.2,269.4
			c13.5,51.8,31.1,103.2,56,151c8.4,16.1,19.7,28.5,41.5,26.9c19.7-1.6,28.5-14.5,35.3-29.1c11.4-24.9,20.3-51.4,30.7-77.3
			c8.4-21.3,11.9-44.6,28.1-62.2c21.7-48.2,48.8-83.5,98-84.1c35.3-0.6,57.6,14,71.1,46.6c3.2,7.8,5.2,16.1,7.8,23.9
			c15.1,9.8,12.4,27.5,16.6,42c13,42,22.3,85.1,47.8,121.9c15.1,21.7,37.9,23.3,56.6,5.2c16.6-16.1,24.9-36.9,32.1-58.2
			c31.1-90.3,46.6-184.1,68.5-276.6C783.6,552.9,786.7,477.1,777.3,401.3z M731.7,547.7L731.7,547.7L731.7,547.7
			c0,5.8-4.2,9.4-8.8,9.4c-4.6,0-8.8-4.2-8.8-9.4c0-0.6,0-0.6,0-1l0,0l1-34.3l2-52.4v-0.6c0.6-6.8,1-13.5,0.6-20.3
			c0-1.6,0-3.2,0-4.6c-4.2-78.9-68-143.3-146.9-147.9c-24.3-1.6-47.8,2.6-69,10.9c24.3-13.5,53-20.7,83.1-19.1
			c80.5,3.6,146.3,68.5,150,149.4c0,4.2,0,8.4,0,12.4h0.6L731.7,547.7z"/>
		<path class="st1" d="M544.4,792c-11.9,23.9-23.3,48.8-36.3,72.1c-23.9,42-63.3,46.2-97,10.9c-19.1-20.3-34.3-43.6-44.1-69.5
			c21.7-48.2,48.8-83.5,98-84.1c35.3-0.6,57.6,14,71.1,46.6C539.8,776,541.8,784.2,544.4,792z"/>
	</g>
	<g>
		<path class="st0" d="M761.3,116.5c0,3.2-2,5.2-4.6,7.2c-5.2,3.6-10.9,6.8-17.1,8.4c-23.9,7.2-35.8,23.3-37.9,47.8
			c-0.6,6.2-1.6,11.9-4.2,17.7c-3.2,7.2-8.4,7.8-13.5,1.6c-4.6-6.2-7.2-13-9.8-20.3c-6.8-19.7-22.3-32.1-43-34.3
			C625,144,618.8,143,613,141c-3.6-1.6-8.8-2.6-8.8-7.2c-0.6-4.6,3.6-6.8,6.8-8.8c6.2-4.2,13-5.8,19.7-8.4
			c19.1-7.2,30.1-21.3,32.1-42c1-7.8,1.6-15.5,5.2-22.3c3.2-6.2,7.8-6.8,12.4-1.6c4.6,5.8,7.2,12.4,9.8,19.7
			c7.2,22.9,23.3,33.7,46.6,35.8c6.2,0.6,12.4,2,18.7,4.6C758.2,111.3,760.2,113.3,761.3,116.5z"/>
	</g>
	<g>
		<path class="st0" d="M959,211.4c-0.6,4.2-2.6,6.8-5.8,8.8c-6.2,4.6-13.5,8.4-21.3,10.4c-29.5,8.8-44.6,29.1-46.6,59.6
			c-0.6,7.2-2,15.1-5.2,21.7c-4.2,8.8-10.4,9.8-16.6,2c-5.8-7.8-8.8-16.6-11.9-25.5c-7.8-24.3-27.5-40-53-42
			c-7.8-0.6-15.5-1.6-22.9-4.2c-4.6-1.6-10.4-3.2-10.9-9.4c-0.6-5.8,4.6-8.4,8.8-10.9c7.8-4.6,16.1-7.2,24.3-10.4
			c23.9-9.4,36.9-26.5,39.4-51.8c1-9.4,2-19.1,6.8-28.1c4.2-7.8,9.8-8.4,15.1-1.6c6.2,7.2,9.4,15.5,11.9,24.3
			c8.8,28.1,28.5,42,57.6,44.1c7.8,0.6,15.5,2,22.9,5.8C954.8,205.2,957.4,207.2,959,211.4z"/>
	</g>
	<g>
		<path class="st0" d="M889.5,376.3c0,2-1,3.2-2.6,4.2c-3.2,2-6.8,4.2-9.8,5.2c-14,4.2-21.3,14-22.3,28.1c-0.6,3.6-1,7.2-2.6,10.4
			c-2,4.2-5.2,4.6-7.8,1c-2.6-3.6-4.2-7.8-5.8-11.9c-3.6-11.4-13-19.1-25.5-20.3c-3.6-0.6-7.2-1-10.9-2c-2-1-5.2-1.6-5.2-4.2
			s2-4.2,4.2-5.2c3.6-2,7.8-3.6,11.4-5.2c11.4-4.2,17.7-12.4,18.7-24.9c0.6-4.6,1-8.8,3.2-13c2-3.6,4.6-4.2,7.2-1
			c2.6,3.6,4.2,7.2,5.8,11.4c4.2,13.5,13.5,19.7,27.5,20.7c3.6,0.6,7.2,1,10.9,2.6C887.3,373.3,888.9,374.3,889.5,376.3z"/>
	</g>
	<path class="st2" d="M782.5,577.8"/>
</g>
</svg>
