<?xml version="1.0" encoding="utf-8"?>
<!-- Generator: Adobe Illustrator 21.0.0, SVG Export Plug-In . SVG Version: 6.00 Build 0)  -->
<svg version="1.1" id="Layer_1" xmlns="http://www.w3.org/2000/svg" xmlns:xlink="http://www.w3.org/1999/xlink" x="0px" y="0px"
	 viewBox="0 0 989 1021" style="enable-background:new 0 0 989 1021;" xml:space="preserve">
<style type="text/css">
	.st0{fill:#75C4BF;}
	.st1{fill:#4C958F;}
	.st2{fill:#FFFFFF;stroke:#000000;stroke-width:5.25;stroke-miterlimit:10;}
	.st3{fill:#FFFFFF;stroke:#498480;stroke-width:10.4999;stroke-miterlimit:10;}
</style>
<g>
	<g>
		<path class="st0" d="M864.4,547.3c-24.1,104.5-42,210.5-77.2,311.9c-8.4,23.7-17.8,46.7-36.8,65c-21.5,20.5-47.2,18.9-64.1-5.8
			c-28.4-41.5-39.3-89.8-53.5-137.1c-4.7-15.8-1.6-35.7-18.9-47.2c-2.7-9.5-5.2-18.3-9-27.3c-15.3-36.8-40.4-53-80.3-52.5
			c-56.2,0.5-86.1,39.9-110.8,94.5c-18.3,19.9-22.1,46.2-31.5,69.9c-11,29.4-21.5,58.8-34.1,87.1c-7.4,16.9-17.8,31.5-39.9,33.1
			c-24.1,2.1-37.2-12-46.7-30.5c-28.4-54.1-47.8-111.4-63-170.1c-25.7-99.7-38.3-201.6-54.1-303.4c-10-63.6-10-125,11-186.3
			c23.2-67.7,91.8-128.1,173.7-125.4c53,1.6,103.5,9,153.2,25.2c13.7,4.7,25.7,3.6,39.3-2.1c59.3-26.2,120.7-34.1,185.4-22.6
			c66.7,12,157.5,80.3,169,170.6C887,379.9,883.8,464.8,864.4,547.3z"/>
		<path class="st1" d="M614,734.8c-13.7,26.8-26.2,54.6-41,80.8c-26.8,47.2-71.3,51.9-109.2,12c-21.5-22.6-38.3-48.9-49.9-78.2
			c24.6-54.6,54.6-94,110.8-94.5c39.9-0.5,65,15.8,80.3,52.5C608.7,716.3,610.9,725.8,614,734.8z"/>
	</g>
	<path class="st2" d="M804.6,547.3"/>
	<path class="st3" d="M811.9,223.4v6.8c0,7.9-6.3,14.2-14.2,14.2h-16.9v16.9c0,9.5-7.9,17.3-17.3,17.3c-9.5,0-17.3-7.9-17.3-17.3
		v-16.9h-17.8c-7.9,0-14.2-6.3-14.2-14.2v-6.8c0-7.9,6.3-14.2,14.2-14.2h17.8v-19.9c0-9.5,7.9-17.3,17.3-17.3c4.7,0,9,2.1,12,5.2
		c3.2,3.2,5.2,7.4,5.2,12v19.9h16.9C805.6,209.7,811.9,216,811.9,223.4z"/>
	<path class="st3" d="M932.1,312.7v8.4c0,9.5-8.4,17.8-19.4,17.8h-23v21c0,12-10.4,22.1-24.1,22.1c-13.1,0-23.7-10-23.7-22.1v-21
		h-24.6c-10.4,0-19.4-7.9-19.4-17.8v-8.4c0-9.5,8.4-17.8,19.4-17.8h24.6v-25.2c0-12,10.4-21.5,23.7-21.5c6.8,0,12.6,2.7,16.9,6.3
		c4.1,4.1,6.8,9.5,6.8,15.3v25.2h23.2C923.3,294.7,932.1,303.2,932.1,312.7z"/>
	<path class="st3" d="M835.6,409.3v7.4c0,8.4-6.8,14.7-14.7,14.7h-17.8v17.8c0,10-8.4,18.3-18.3,18.3c-10,0-18.3-8.4-18.3-18.3
		v-17.8H747c-8.4,0-14.7-6.8-14.7-14.7v-7.4c0-8.4,6.8-14.7,14.7-14.7h19.4V373c0-10,8.4-18.3,18.3-18.3c5.2,0,10,2.1,13.1,5.2
		c3.6,3.6,5.2,7.9,5.2,13.1v21.5h17.8C828.8,394.6,835.6,400.9,835.6,409.3z"/>
</g>
</svg>
