<?xml version="1.0" encoding="utf-8"?>
<!-- Generator: Adobe Illustrator 21.0.0, SVG Export Plug-In . SVG Version: 6.00 Build 0)  -->
<svg version="1.1" id="Layer_1" xmlns="http://www.w3.org/2000/svg" xmlns:xlink="http://www.w3.org/1999/xlink" x="0px" y="0px"
	 viewBox="0 0 989 1021" style="enable-background:new 0 0 989 1021;" xml:space="preserve">
<style type="text/css">
	.st0{fill:none;stroke:#75C4BF;stroke-width:18.8351;stroke-miterlimit:10;}
	.st1{fill:none;stroke:#75C4BF;stroke-width:22.0332;stroke-miterlimit:10;}
	.st2{fill:#FFFFFF;stroke:#000000;stroke-width:4.4064;stroke-miterlimit:10;}
	.st3{fill:#75C4BF;}
</style>
<g>
	<path class="st0" d="M591.3,773.3c-11.3,22.6-22.2,45.6-34.4,67.8c-22.6,39.5-59.8,43.8-91.8,10.3c-17.8-18.9-32-40.9-41.9-65.4
		c20.8-45.6,45.6-79.2,92.8-79.2c33.4-0.5,54.7,13.1,67.3,44.2C587,757.7,588.4,765.8,591.3,773.3z"/>
	<path class="st1" d="M775.4,325.5c-29.7-34.8-71.5-58.9-105.4-65c-54.2-9.9-105.9-3.3-155.4,18.9c-11.3,4.7-21.7,5.6-33,1.9
		c-41.9-13.6-84.3-19.8-128.5-21.2c-68.7-2.3-126.7,48.4-146,105.4c-17.5,51.4-17.5,103.1-9.4,156.3c13.1,85.7,24,170.9,45.3,254.7
		c12.7,49.5,29.2,97.5,52.8,142.6c8,15.6,18.9,27.3,39.1,25.4c18.4-1.4,27.3-13.6,33.4-27.8c10.3-24,19.2-48.4,28.7-73
		c8-19.8,10.8-41.9,26.4-58.4c20.8-45.6,45.6-79.2,92.8-79.2c33.4-0.5,54.7,13.1,67.3,44.2c3.3,7.5,5.2,15,7.5,23.1
		c14.7,9.9,11.7,26.4,16.1,39.5c11.7,39.5,21.2,80,44.7,114.8c14.1,20.8,35.8,22.2,53.7,4.7c16.1-15.6,24-34.8,31.1-54.7
		c29.7-85.3,44.7-174.2,65-261.8c9.4-40.5,14.7-82,15-123.4"/>
	<path class="st2" d="M751.4,616.1"/>
	<g>
		<path class="st3" d="M901.1,378.8c-0.5,3.8-2.3,5.6-5.2,7.5c-5.6,4.2-11.7,7-18.4,8.9c-25.9,7.5-39.1,25.4-40.5,51.8
			c-0.5,6.1-1.9,13.1-4.7,18.9c-3.8,7.5-8.9,8.4-14.7,1.9c-5.2-6.6-7.5-14.7-10.3-22.2c-6.6-21.2-24-34.8-46.1-36.7
			c-6.6-0.5-13.6-1.4-19.8-3.8c-4.2-1.4-8.9-2.8-9.4-8c-0.5-5.2,4.2-7,7.5-9.4c6.6-4.2,14.1-6.1,21.2-8.9c20.8-8,32-23.1,34.4-45.3
			c0.9-8,1.9-17,5.6-24.5c3.8-6.6,8.4-7,13.1-1.4c5.6,6.1,8,13.6,10.3,21.2c7.5,24.5,25,36.7,50.3,38.6c6.6,0.5,13.6,1.9,19.8,5.2
			C897.4,373,899.7,375,901.1,378.8z"/>
	</g>
	<g>
		<path class="st3" d="M888.4,254.5c0,1.9-0.9,2.8-2.3,3.8c-2.8,1.9-6.1,3.8-9.4,4.7c-13.1,3.8-20.3,13.1-21.2,26.9
			c0,3.3-0.9,6.6-2.3,9.9c-1.9,3.8-4.7,4.2-7.5,0.9c-2.3-3.3-3.8-7.5-5.2-11.3c-3.3-10.8-12.2-17.8-24-18.9c-3.3,0-7-0.5-10.3-1.9
			c-1.9-0.5-4.7-1.4-4.7-4.2c0-2.3,1.9-3.8,3.8-4.7c3.3-1.9,7-3.3,10.8-4.7c10.8-4.2,16.4-11.7,17.8-23.6c0.5-4.2,0.9-8.4,2.8-12.7
			c1.9-3.3,4.2-3.8,6.6-0.5c2.8,3.3,4.2,7,5.2,10.8c3.8,12.7,12.7,18.9,25.9,19.8c3.3,0,7,0.9,10.3,2.3
			C886.5,251.6,887.9,252.6,888.4,254.5z"/>
	</g>
	<g>
		<path class="st3" d="M961.9,438c0,1.9-0.9,2.8-2.3,3.8c-2.8,1.9-6.1,3.8-9.4,4.7c-13.1,3.8-20.3,13.1-21.2,26.9
			c0,3.3-0.9,6.6-2.3,9.9c-1.9,3.8-4.7,4.2-7.5,0.9c-2.3-3.3-3.8-7.5-5.2-11.3c-3.3-10.8-12.2-17.8-24-18.9c-3.3,0-7-0.5-10.3-1.9
			c-1.9-0.5-4.7-1.4-4.7-4.2c0-2.3,1.9-3.8,3.8-4.7c3.3-1.9,7-3.3,10.8-4.7c10.8-4.2,16.4-11.7,17.8-23.6c0.5-4.2,0.9-8.4,2.8-12.7
			c1.9-3.3,4.2-3.8,6.6-0.5c2.8,3.3,4.2,7,5.2,10.8c3.8,12.7,12.7,18.9,25.9,19.8c3.3,0,7,0.9,10.3,2.3
			C960,435.2,961.4,436.1,961.9,438z"/>
	</g>
	<path class="st3" d="M263.5,233.7l-2.8,0.9c-2.8,0.9-6.1-0.5-7.5-3.8l-30.6-90.4c-0.9-2.8,0.5-6.1,3.8-7.5l2.8-0.9
		c2.8-0.9,6.1,0.5,7.5,3.8l30.6,90.4C268.2,229.5,266.4,232.8,263.5,233.7z"/>
	<path class="st3" d="M165.1,341.6l-0.9,2.8c-1.4,2.8-4.7,4.2-7.5,3.3L68.6,311c-2.8-1.4-4.2-4.7-3.3-7.5l0.9-2.8
		c1.4-2.8,4.7-4.2,7.5-3.3l88.1,36.7C165.1,335.4,166.1,338.8,165.1,341.6z"/>
	<path class="st3" d="M154.2,513v2.8c0,3.3-2.8,5.6-6.1,5.6l-95.6-1.9c-3.3,0-5.6-2.8-5.6-6.1v-2.8c0-3.3,2.8-5.6,6.1-5.6l95.6,1.9
		C151.4,507.3,154.2,509.7,154.2,513z"/>
	<path class="st3" d="M744.8,233.7l2.8,0.9c2.8,0.9,6.1-0.5,7.5-3.8l30.6-90.4c0.9-2.8-0.5-6.1-3.8-7.5l-2.8-0.9
		c-2.8-0.9-6.1,0.5-7.5,3.8L741,226.2C740.1,229.5,742,232.8,744.8,233.7z"/>
	<path class="st3" d="M430.7,218.7h2.8c3.3,0,5.6-2.8,5.6-5.6v-95.6c0-3.3-2.8-5.6-5.6-5.6h-2.8c-3.3,0-5.6,2.8-5.6,5.6v95.6
		C424.6,215.9,427.4,218.7,430.7,218.7z"/>
	<path class="st3" d="M600.6,218.7h2.8c3.3,0,5.6-2.8,5.6-5.6v-95.6c0-3.3-2.8-5.6-5.6-5.6h-2.8c-3.3,0-5.6,2.8-5.6,5.6v95.6
		C595,215.9,597.8,218.7,600.6,218.7z"/>
	<path class="st3" d="M854,513v2.8c0,3.3,2.8,5.6,6.1,5.6l95.6-1.9c3.3,0,5.6-2.8,5.6-6.1v-2.8c0-3.3-2.8-5.6-6.1-5.6l-95.6,1.9
		C856.3,507.3,854,509.7,854,513z"/>
</g>
</svg>
