<?xml version="1.0" encoding="utf-8"?>
<!-- Generator: Adobe Illustrator 21.0.0, SVG Export Plug-In . SVG Version: 6.00 Build 0)  -->
<svg version="1.1" id="Layer_1" xmlns="http://www.w3.org/2000/svg" xmlns:xlink="http://www.w3.org/1999/xlink" x="0px" y="0px"
	 viewBox="0 0 444.1 221.2" style="enable-background:new 0 0 444.1 221.2;" xml:space="preserve">
<style type="text/css">
	.st0{fill:#75C4BF;}
	.st1{fill:#5BA4A0;}
	.st2{fill:#437D78;}
	.st3{fill:#4C958F;}
	.st4{fill:#FFFFFF;stroke:#000000;stroke-miterlimit:10;}
	.st5{fill:#498480;}
	.st6{fill:#FFFFFF;stroke:#498480;stroke-width:2;stroke-miterlimit:10;}
	.st7{fill:none;stroke:#498480;stroke-width:7;stroke-miterlimit:10;}
	.st8{fill:none;stroke:#498480;stroke-width:2;stroke-miterlimit:10;}
</style>
<g>
	<path class="st0" d="M403.3,139c-4.6,19.9-8,40.1-14.7,59.4c-1.6,4.5-3.4,8.9-7,12.4c-4.1,3.9-9,3.6-12.2-1.1
		c-5.4-7.9-7.5-17.1-10.2-26.1c-0.9-3-0.3-6.8-3.6-9c-0.5-1.8-1-3.5-1.7-5.2c-2.9-7-7.7-10.1-15.3-10c-10.7,0.1-16.4,7.6-21.1,18
		c-3.5,3.8-4.2,8.8-6,13.3c-2.1,5.6-4.1,11.2-6.5,16.6c-1.4,3.2-3.4,6-7.6,6.3c-4.6,0.4-7.1-2.3-8.9-5.8c-5.4-10.3-9.1-21.2-12-32.4
		c-4.9-19-7.3-38.4-10.3-57.8c-1.9-12.1-1.9-23.8,2.1-35.5c4.4-12.9,17.5-24.4,33.1-23.9c10.1,0.3,19.7,1.7,29.2,4.8
		c2.6,0.9,4.9,0.7,7.5-0.4c11.3-5,23-6.5,35.3-4.3c12.7,2.3,30,15.3,32.2,32.5C407.6,107.1,407,123.3,403.3,139z"/>
	<path class="st1" d="M144.8,58.1c-0.9,6.7-2.8,13-5.6,18.7c-4.9,10-10.8,14.8-19.7,21.9c-4.9,4-10.5,8.4-17.2,14.8
		c-14.5,13.9-24.1,23.1-29.2,37c-4.4,11.9-6.8,32.2,6,61c0.1,0.4,0.3,0.7,0.6,1c-2.3,1-4.5,0.1-6.9-2.7c-3.7-4-5.3-9.2-7.2-14.1
		c-6.8-17.2-10.4-35.2-13.3-53.4v0c-0.3-1.9-0.6-3.9-0.9-5.8c-1.8-12.4-4.6-24.8-3.9-37.5c0.1-2.3,0.3-4.6,0.7-6.8
		c1.7-11,6.5-20.5,16.5-27.5c8.7-6,18.4-6,28.2-4.8c4.2,0.5,8.7,1.1,12.5,2.7c7.3,3.1,13.8,1.4,20.9-1.1
		C132.7,59.2,138.9,58.1,144.8,58.1z"/>
	<path class="st1" d="M150.5,58.5c-0.1,0.7-0.2,1.4-0.3,2C150.3,59.9,150.4,59.2,150.5,58.5L150.5,58.5z"/>
	<path class="st1" d="M181.9,145.8c-1.5,6.5-3.1,13.1-4.7,19.6c-0.5,2.3-1.1,4.5-1.6,6.8c-1.7,6.9-3.3,13.8-5.1,20.7
		c-1.4,5.5-3.9,10.6-7,15.3c-3.5,5.3-8.9,5.2-12.3-0.2c-5.2-8.1-7.3-17.3-9.9-26.4c-0.9-3.1-0.9-6.6-3.6-8.9
		c-0.2-2.1-1.7-3.6-2.8-5.2c-6.9-9.8-19.9-10.7-26-4.9c-3.3,3.1-6.1,6.8-9.3,10.1c-0.9,1-1.1,2.1-1.2,3.2c0,0.2,0,0.3,0,0.5
		c-2.9,0.8-3,3.6-3.8,5.7c-1.7,4.4-3.3,8.8-5,13.3c-6-19.8-4-34-0.7-43c4.6-12.6,13.3-21,27.8-34.8c6.5-6.2,12-10.6,16.8-14.5
		c9.2-7.4,15.8-12.7,21.3-23.8c2.7-5.5,4.7-11.6,5.8-18c6,2.5,11.6,6.6,16.9,12.4c2.3,2.5,4,5.2,5.3,8.1c2.5,5.6,3.4,11.8,3.8,18.1
		C187.7,115.5,185.2,130.7,181.9,145.8z"/>
	<path class="st2" d="M98.4,176.4c0-1.3,0.1-2.6,1.2-3.7c3.1-3.3,5.9-7,9.3-10.1c6.1-5.7,19.1-4.8,26,4.9c1.1,1.6,2.6,3.1,2.8,5.2
		c-3,5.9-5.8,11.9-9.2,17.6c-5.1,8.5-12.7,9.2-19.7,2.3C104.1,188,101,182.4,98.4,176.4z"/>
	<path class="st3" d="M355.6,174.7c-2.6,5.1-5,10.4-7.8,15.4c-5.1,9-13.6,9.9-20.8,2.3c-4.1-4.3-7.3-9.3-9.5-14.9
		c4.7-10.4,10.4-17.9,21.1-18c7.6-0.1,12.4,3,15.3,10C354.6,171.2,355,173,355.6,174.7z"/>
</g>
<path class="st4" d="M391.9,138.1"/>
<path class="st5" d="M216.1,145.5c-1.6-5.3,2.3-8.8,6.1-12.2c3.6-3.1,3.9-6.3,0-8.8c-6.6-4.4-6.5-10.8-6.1-17.4c0.1-1,0-2.1,1.1-2.5
	c1.3-0.5,2,0.3,2.9,1.2c5.8,6,11.8,11.9,17.6,17.9c3.9,4,3.9,7-0.1,11c-5.4,5.5-10.9,10.8-16.4,16.2c-1.1,1.1-1.8,3.2-3.9,2.4
	c-2-0.8-0.9-2.9-1.2-4.4C216,148,216.1,147.2,216.1,145.5z"/>
<path class="st6" d="M393.3,76.4v1.3c0,1.5-1.2,2.7-2.7,2.7h-3.2v3.2c0,1.8-1.5,3.3-3.3,3.3c-1.8,0-3.3-1.5-3.3-3.3v-3.2h-3.4
	c-1.5,0-2.7-1.2-2.7-2.7v-1.3c0-1.5,1.2-2.7,2.7-2.7h3.4v-3.8c0-1.8,1.5-3.3,3.3-3.3c0.9,0,1.7,0.4,2.3,1c0.6,0.6,1,1.4,1,2.3v3.8
	h3.2C392.1,73.8,393.3,75,393.3,76.4z"/>
<path class="st6" d="M416.2,93.4V95c0,1.8-1.6,3.4-3.7,3.4h-4.4v4c0,2.3-2,4.2-4.6,4.2c-2.5,0-4.5-1.9-4.5-4.2v-4h-4.7
	c-2,0-3.7-1.5-3.7-3.4v-1.6c0-1.8,1.6-3.4,3.7-3.4h4.7v-4.8c0-2.3,2-4.1,4.5-4.1c1.3,0,2.4,0.5,3.2,1.2c0.8,0.8,1.3,1.8,1.3,2.9V90
	h4.4C414.5,90,416.2,91.6,416.2,93.4z"/>
<path class="st6" d="M397.8,111.8v1.4c0,1.6-1.3,2.8-2.8,2.8h-3.4v3.4c0,1.9-1.6,3.5-3.5,3.5c-1.9,0-3.5-1.6-3.5-3.5V116h-3.7
	c-1.6,0-2.8-1.3-2.8-2.8v-1.4c0-1.6,1.3-2.8,2.8-2.8h3.7v-4.1c0-1.9,1.6-3.5,3.5-3.5c1,0,1.9,0.4,2.5,1c0.7,0.7,1,1.5,1,2.5v4.1h3.4
	C396.5,109,397.8,110.2,397.8,111.8z"/>
<g>
	<path class="st5" d="M161.7,19.4c0,0.6,0,1.1,0,1.7c-0.4,0.1-0.8,0.4-0.8,0.8c0,2.3-0.3,4.5,0.1,6.8c0,0.5,0.1,1-0.1,1.5
		c-0.4,1.2-0.8,2.4-0.8,3.7c0,1.3,0.1,2.6-0.1,3.8c-0.5,2.3-0.6,4.6-0.6,7c0,0.6-0.1,0.9-0.6,1.2c-1.3,0.9-2.4,1.9-2.2,3.8
		c0.2,2,0.4,4-0.4,6c0,0,0,0,0,0c-1.1,0.3-2.2,0.4-3.3-0.2c-0.5-0.3-1.4,0.3-1.8-0.4c-0.3-0.5-0.3-1.3-0.3-1.9c0-0.4,0-0.7,0-1.1
		c0-1.6,0-3.2,0-4.7c0-0.3,0-0.9-0.6-0.5c-0.7,0.5-1.2,0.1-1.7-0.4c-0.3-0.3-0.4-0.8-1-0.9c-0.2-0.3-0.2-0.6-0.1-1
		c0.3-2.1,0.3-4.3,0-6.3c-0.2-1.1,0-2.2-0.7-3.2c0-0.3,0-0.7-0.1-1c0.5-1.9,0.3-2.2-1.6-2.2c-5.2,0-10.4,0-15.6,0
		c-1.2,0-2.1,0.3-2.7,1.3c-0.8,1.5-2.5,1.8-3.7,2.8c-0.1,0.1-0.4,0.2-0.6,0.2c-1.4-0.7-2.6,0.2-4,0.2c-26.6-0.1-53.2,0-79.8-0.1
		c-2.3,0-4.7-0.1-6.9-0.9c-1.8-0.6-3-1.9-3.7-3.5c-0.7-1.8-0.7-1.9-2.6-1.9c-1.6,0-2.4-0.8-2.4-2.4c0-1.3-0.1-2.6,0-3.9
		c0.1-2.3,0.5-3,2.7-2.8c0.8,0.1,1.9-0.2,2-0.9c0.1-1.1,0.7-2,0.9-3.1c0,0,0,0,0,0c1.4,0.3,2.1-1.1,2.9-1.7c1.2-0.9,2.2-1.2,3.5-1.2
		c28.5,0,56.9,0,85.4,0c1.4,0,2.7,0.3,3.9,1.1c0.5,0.3,0.9,0.7,1.5,0.6c0,0,0,0,0,0c0.4,1.6,1.6,2.8,3.1,2.9c5.1,0,10.2,0,15.3,0
		c0.9,0,1.3-0.3,1.3-1.3c-0.1-1.2,0-2.4,0-3.5c-0.1-1.1,0-1.9,1.4-1.6c0,0,0.1-0.1,0.2-0.1c0-0.4-0.7-0.3-0.7-0.8
		c0.4-0.3,0.8-0.2,1.3-0.2c2.5-0.2,5,0.4,7.4,0.2c1.7-0.1,3.4,0,5.1,0c0.4,0,0.9-0.1,1.1,0.4c0.4,1.1,0.8,2.4,0.4,3.5
		C161.4,16.6,161.4,18,161.7,19.4z M77.9,18.2C77.9,18.2,77.9,18.2,77.9,18.2c-14.3,0-28.5,0-42.8,0c-1.9,0-3.4,1.4-3.5,3.2
		c-0.1,2.6,0,5.2,0,7.8c0,1.5,1.2,2.7,2.7,3c2,0.3,3.9,0.2,5.9,0.2c25.7,0.1,51.5,0,77.2,0c0.8,0,1.5,0,2.3,0
		c3.1-0.1,4.5-1.3,4.3-4.4c-0.1-2,0-4.1,0-6.1c0-2.4-1.3-3.7-3.7-3.7C106.3,18.2,92.1,18.2,77.9,18.2z M153.7,15.2c-1,0-2,0-3.1,0
		c-0.7,0-0.9,0.2-0.9,0.9c0,2,0.2,4,0.3,6c0.5,4.9,0.7,9.9,1.2,14.8c0.1,1.5,0.2,3,0.2,4.5c0,0.6,0.1,1.4,0.8,1.4
		c1,0.1,2,0.4,2.9-0.3c0.1-0.1,0.1-0.3,0.1-0.4c0.2-2.7,0.7-5.4,0.8-8.1c0.1-2.3,0.4-4.6,0.5-6.9c0.2-3.2,0.7-6.4,0.9-9.7
		c0.1-2.5,0.3-2.1-2.1-2.1C154.9,15.2,154.3,15.2,153.7,15.2z M137.3,27.7c2.5,0,5,0,7.6,0c0.7,0,1.1-0.2,1-1
		c-0.1-1.1,0.1-2.3-0.2-3.4c-0.1-0.6-0.3-0.8-0.9-0.8c-5,0-10,0-15,0c-0.7,0-1,0.3-1,1c0,1,0.1,2,0,3c-0.1,0.9,0.3,1.1,1.1,1.1
		C132.3,27.7,134.8,27.7,137.3,27.7z"/>
	<path class="st5" d="M28.7,16.9c-0.2,1-0.7,2-0.9,3.1c-0.1,0.7-1.2,0.9-2,0.9c-2.3-0.2-2.6,0.5-2.7,2.8c-0.1,1.3,0,2.6,0,3.9
		c0,1.6,0.8,2.4,2.4,2.4c1.8,0,1.8,0.2,2.6,1.9c0.7,1.7,1.9,2.9,3.7,3.5c2.3,0.8,4.6,0.9,6.9,0.9c26.6,0,53.2,0,79.8,0.1
		c1.3,0,2.6-0.9,4-0.2c0.1,0.1,0.4-0.1,0.6-0.2c1.1-1,2.8-1.3,3.7-2.8c0.6-1,1.5-1.3,2.7-1.3c5.2,0,10.4,0,15.6,0
		c1.9,0,2.1,0.3,1.6,2.2c-0.6-1.8-0.6-1.8-2.7-1.8c-4.9,0-9.9,0-14.8,0c-0.8,0-1.3,0.2-1.7,0.9c-1.8,2.7-4.4,3.7-7.5,3.7
		c-28.1,0-56.1,0-84.2,0c-3.1,0-5.8-1-7.4-3.8c-0.9-1.6-1.5-3-3.9-2.7c-1,0.1-1.9-0.9-1.9-2.2c0-1.9-0.1-3.8,0-5.7
		c0.1-1.6,0.9-2.4,2.5-2.3c1.4,0.1,2.2-0.3,2.5-1.7C27.8,17.9,28.1,17.3,28.7,16.9z"/>
	<path class="st5" d="M126,15.8c-0.6,0.1-1.1-0.3-1.5-0.6c-1.2-0.8-2.5-1.1-3.9-1.1c-28.5,0-56.9,0-85.4,0c-1.3,0-2.4,0.3-3.5,1.2
		c-0.8,0.6-1.5,2-2.9,1.7c1.2-2.1,3.2-3,5.5-3.2c1.7-0.2,3.3,0,5,0c27.1,0,54.3,0,81.4,0C122.7,13.6,124.6,14.1,126,15.8z"/>
	<path class="st5" d="M161.7,19.4c-0.2-1.4-0.3-2.7,0.1-4.2c0.3-1.2-0.1-2.4-0.4-3.5c-0.1-0.5-0.7-0.4-1.1-0.4c-1.7,0-3.4-0.2-5.1,0
		c-2.5,0.2-4.9-0.4-7.4-0.2c-0.4,0-0.9-0.1-1.3,0.2c0,0.5,0.6,0.4,0.7,0.8c-0.1,0-0.1,0.1-0.2,0.1c-1.4-0.4-1.5,0.5-1.4,1.6
		c0.1,1.2,0,2.4,0,3.5c0.1,1-0.4,1.3-1.3,1.3c-5.1,0-10.2,0-15.3,0c-1.4,0-2.7-1.2-3.1-2.9c0.6,0.2,1,0.7,1.3,1.2
		c0.5,1,1.3,1.1,2.2,1.1c4.9,0,9.8,0,14.8,0c0.8,0,1.1-0.3,1-1.1c-0.1-1.2-0.2-2.3-0.3-3.5c-0.1-1.9,0.8-2.9,2.7-2.9c4,0,8,0,12,0
		c2,0,3,1,2.7,3C162.1,15.5,162.4,17.5,161.7,19.4z"/>
	<path class="st5" d="M156.1,55.6c0.8-1.9,0.6-4,0.4-6c-0.2-2,0.8-2.9,2.2-3.8c0.5-0.3,0.6-0.6,0.6-1.2c0-2.3,0.1-4.7,0.6-7
		c0.3-1.2,0.1-2.5,0.1-3.8c0-1.3,0.4-2.5,0.8-3.7c-0.1,1.4-0.1,2.8-0.2,4.1c-0.3,3.6-0.6,7.2-0.9,10.8c-0.1,1.1-0.6,2-1.7,2.2
		c-0.7,0.1-0.8,0.5-0.8,1.1c0,1.6,0,3.3,0,4.9C157.2,54.2,157,55.1,156.1,55.6z"/>
	<path class="st5" d="M161,28.7c-0.4-2.2-0.1-4.5-0.1-6.8c0-0.4,0.4-0.7,0.8-0.8C161.6,23.6,161.4,26.2,161,28.7z"/>
</g>
<path class="st7" d="M154,51.3c-0.4,6.3-1.6,15.8-6.5,25.7c-8,16.3-18.8,19.7-37.5,37.5c-14.5,13.9-23.7,22.7-28.5,35.9
	c-2.8,7.6-8.1,27.5,6,59"/>
<path class="st8" d="M75.4,440.4l-0.4,0.2c-0.1-0.2-0.2-0.4-0.3-0.6c0.1-0.1,0.2-0.2,0.3-0.4C75.2,439.8,75.3,440.1,75.4,440.4z"/>
<path class="st8" d="M75.4,440.4l-0.4,0.2c-0.1-0.2-0.2-0.4-0.3-0.6c0.1-0.1,0.2-0.2,0.3-0.4C75.2,439.8,75.3,440.1,75.4,440.4z"/>
</svg>
