<?xml version="1.0" encoding="utf-8"?>
<!-- Generator: Adobe Illustrator 21.0.0, SVG Export Plug-In . SVG Version: 6.00 Build 0)  -->
<svg version="1.1" id="Layer_1" xmlns="http://www.w3.org/2000/svg" xmlns:xlink="http://www.w3.org/1999/xlink" x="0px" y="0px"
	 viewBox="0 0 444.1 221.2" style="enable-background:new 0 0 444.1 221.2;" xml:space="preserve">
<style type="text/css">
	.st0{fill:#75C4BF;}
	.st1{fill:#5BA4A0;}
	.st2{fill:#437D78;}
	.st3{fill:#4C958F;}
	.st4{fill:#FFFFFF;stroke:#000000;stroke-miterlimit:10;}
	.st5{fill:#498480;}
	.st6{fill:#B4EDE7;}
</style>
<g>
	<path class="st0" d="M394.7,111.6c-0.2,1-0.4,2-0.6,3c-0.2,1.2-0.5,2.3-0.8,3.5c-4.6,19.9-8,40.1-14.7,59.4
		c-1.6,4.5-3.4,8.9-7,12.4c-4.1,3.9-9,3.6-12.2-1.1c-5.4-7.9-7.5-17.1-10.2-26.1c-0.9-3-0.3-6.8-3.6-9c-0.5-1.8-1-3.5-1.7-5.2
		c-2.9-7-7.7-10.1-15.3-10c-10.7,0.1-16.4,7.6-21.1,18c-3.5,3.8-4.2,8.8-6,13.3c-2.1,5.6-4.1,11.2-6.5,16.6c-1.4,3.2-3.4,6-7.6,6.3
		c-4.6,0.4-7.1-2.3-8.9-5.8c-5.4-10.3-9.1-21.2-12-32.4c-3.4-13.1-5.6-26.5-7.6-39.9c-0.2-1-0.3-2-0.5-3c-0.8-5-1.5-9.9-2.2-14.9
		c-1.9-12.1-1.9-23.8,2.1-35.5c4.4-12.9,17.5-24.4,33.1-23.9c10.1,0.3,19.7,1.7,29.2,4.8c2.6,0.9,4.9,0.7,7.5-0.4
		c11.3-5,23-6.5,35.3-4.3c12.7,2.3,30,15.3,32.2,32.5C397.3,83.9,397.1,97.9,394.7,111.6z"/>
	<path class="st1" d="M130.4,114.6H174c-0.6,3.4-1.3,6.9-2.1,10.3c-1.5,6.5-3.1,13.1-4.7,19.6c-0.5,2.3-1.1,4.5-1.6,6.8
		c-1.7,6.9-3.3,13.8-5.1,20.7c-1.4,5.5-3.9,10.6-7,15.3c-3.5,5.3-8.9,5.2-12.3-0.2c-5.2-8.1-7.3-17.3-9.9-26.4
		c-0.9-3.1-0.9-6.6-3.6-8.9c-0.2-2.1-1.7-3.6-2.8-5.2c-6.9-9.8-19.9-10.7-26-4.9c-3.3,3.1-6.1,6.8-9.3,10.1c-0.8,1-1.1,2-1.2,3
		c0,0.1,0,0.1,0,0.2v0.5c-2.9,0.8-3,3.6-3.8,5.7c-2.8,7.1-5.3,14.3-8,21.4c-0.8,2.1-2,4.2-3.5,6c-3.5,4.3-6.7,4.3-10.3,0.2
		c-3.7-4-5.3-9.2-7.2-14.1c-6.8-17.2-10.4-35.2-13.3-53.4c-0.3-1.9-0.6-3.9-0.9-5.8c0-0.3-0.1-0.6-0.1-0.9H86V82.2h44.5V114.6z"/>
	<path class="st1" d="M175.4,101.9h-36.1v-32H77.7v32H39.9C38.4,92.7,37,83.4,37.5,74c0.1-2.3,0.3-4.6,0.7-6.8
		c1.7-11,6.5-20.5,16.5-27.5c8.7-6,18.4-6,28.2-4.8c4.2,0.5,8.7,1.1,12.5,2.7c7.3,3.1,13.8,1.4,20.9-1.1c7.5-2.6,14.7-3.7,21.5-3.2
		c10.9,0.8,20.8,5.8,29.7,15.4c2.3,2.5,4,5.2,5.3,8.1c2.5,5.6,3.4,11.8,3.8,18.1C177.2,84,176.7,93,175.4,101.9z"/>
	<path class="st2" d="M88.4,155.5c0-1.3,0.1-2.6,1.2-3.7c3.1-3.3,5.9-7,9.3-10.1c6.1-5.7,19.1-4.8,26,4.9c1.1,1.6,2.6,3.1,2.8,5.2
		c-3,5.9-5.8,11.9-9.2,17.6c-5.1,8.5-12.7,9.2-19.7,2.3C94.1,167.1,91,161.5,88.4,155.5z"/>
	<path class="st3" d="M345.6,153.8c-2.6,5.1-5,10.4-7.8,15.4c-5.1,9-13.6,9.9-20.8,2.3c-4.1-4.3-7.3-9.3-9.5-14.9
		c4.7-10.4,10.4-17.9,21.1-18c7.6-0.1,12.4,3,15.3,10C344.6,150.3,345,152.1,345.6,153.8z"/>
</g>
<path class="st4" d="M381.9,118.1"/>
<path class="st5" d="M206.1,125.5c-1.6-5.3,2.3-8.8,6.1-12.2c3.6-3.1,3.9-6.3,0-8.8c-6.6-4.4-6.5-10.8-6.1-17.4c0.1-1,0-2.1,1.1-2.5
	c1.3-0.5,2,0.3,2.9,1.2c5.8,6,11.8,11.9,17.6,17.9c3.9,4,3.9,7-0.1,11c-5.4,5.5-10.9,10.8-16.4,16.2c-1.1,1.1-1.8,3.2-3.9,2.4
	c-2-0.8-0.9-2.9-1.2-4.4C206,128,206.1,127.2,206.1,125.5z"/>
<path class="st6" d="M394.7,111.6c-0.2,1-0.4,2-0.6,3h-40.4V82.2h-50.1v32.4h-44.7c-0.2-1-0.3-2-0.5-3h42.5v-32h56v32H394.7z"/>
</svg>
