<?xml version="1.0" encoding="utf-8"?>
<!-- Generator: Adobe Illustrator 21.0.0, SVG Export Plug-In . SVG Version: 6.00 Build 0)  -->
<svg version="1.1" id="Layer_1" xmlns="http://www.w3.org/2000/svg" xmlns:xlink="http://www.w3.org/1999/xlink" x="0px" y="0px"
	 viewBox="0 0 444.1 221.2" style="enable-background:new 0 0 444.1 221.2;" xml:space="preserve">
<style type="text/css">
	.st0{fill:none;stroke:#75C4BF;stroke-width:4;stroke-miterlimit:10;}
	.st1{fill:none;stroke:#75C4BF;stroke-width:4.6792;stroke-miterlimit:10;}
	.st2{fill:#5BA4A0;}
	.st3{fill:#437D78;}
	.st4{fill:#FFFFFF;stroke:#000000;stroke-width:0.9358;stroke-miterlimit:10;}
	.st5{fill:#498480;}
	.st6{fill:#75C4BF;}
</style>
<path class="st0" d="M341,166.3c-2.4,4.8-4.7,9.7-7.3,14.4c-4.8,8.4-12.7,9.3-19.5,2.2c-3.8-4-6.8-8.7-8.9-13.9
	c4.4-9.7,9.7-16.8,19.7-16.8c7.1-0.1,11.6,2.8,14.3,9.4C340.1,163,340.4,164.7,341,166.3z"/>
<path class="st1" d="M380.1,71.2c-6.3-7.4-15.2-12.5-22.4-13.8c-11.5-2.1-22.5-0.7-33,4c-2.4,1-4.6,1.2-7,0.4
	c-8.9-2.9-17.9-4.2-27.3-4.5c-14.6-0.5-26.9,10.3-31,22.4c-3.7,10.9-3.7,21.9-2,33.2c2.8,18.2,5.1,36.3,9.6,54.1
	c2.7,10.5,6.2,20.7,11.2,30.3c1.7,3.3,4,5.8,8.3,5.4c3.9-0.3,5.8-2.9,7.1-5.9c2.2-5.1,4.1-10.3,6.1-15.5c1.7-4.2,2.3-8.9,5.6-12.4
	c4.4-9.7,9.7-16.8,19.7-16.8c7.1-0.1,11.6,2.8,14.3,9.4c0.7,1.6,1.1,3.2,1.6,4.9c3.1,2.1,2.5,5.6,3.4,8.4c2.5,8.4,4.5,17,9.5,24.4
	c3,4.4,7.6,4.7,11.4,1c3.4-3.3,5.1-7.4,6.6-11.6c6.3-18.1,9.5-37,13.8-55.6c2-8.6,3.1-17.4,3.2-26.2"/>
<path class="st2" d="M161.9,134.9c-1.5,6.5-3.1,13.1-4.7,19.6c-0.5,2.3-1.1,4.5-1.6,6.8c-1.7,6.9-3.3,13.8-5.1,20.7
	c-1.4,5.5-3.9,10.6-7,15.3c-3.5,5.3-8.9,5.2-12.3-0.2c-5.2-8.1-7.3-17.3-9.9-26.4c-0.9-3.1-0.9-6.6-3.6-8.9
	c-0.2-2.1-1.7-3.6-2.8-5.2c-6.9-9.8-19.9-10.7-26-4.9c-3.3,3.1-6.1,6.8-9.3,10.1c-0.9,1.1-1.1,2.1-1.2,3.2c0,0.2,0,0.3,0,0.5
	c-2.9,0.8-3,3.6-3.8,5.7c-2.8,7.1-5.3,14.3-8,21.4c-0.8,2.1-2,4.2-3.5,6c-3.5,4.3-6.7,4.3-10.3,0.2c-3.7-4-5.3-9.2-7.2-14.1
	c-6.8-17.2-10.4-35.2-13.3-53.4l0,0c-0.3-1.9-0.6-3.9-0.9-5.8c-1.8-12.4-4.6-24.8-3.9-37.5c0.1-2.3,0.3-4.6,0.7-6.8
	c1.7-11,6.5-20.5,16.5-27.5c8.7-6,18.4-6,28.2-4.8c4.2,0.5,8.7,1.1,12.5,2.7c7.3,3.1,13.8,1.4,20.9-1.1c7.5-2.6,14.7-3.7,21.5-3.2
	c10.9,0.8,20.8,5.8,29.7,15.4c2.3,2.5,4,5.2,5.3,8.1c2.5,5.6,3.4,11.8,3.8,18.1C167.7,104.6,165.2,119.8,161.9,134.9z"/>
<path class="st3" d="M78.4,165.5c0-1.3,0.1-2.6,1.2-3.7c3.1-3.3,5.9-7,9.3-10.1c6.1-5.7,19.1-4.8,26,4.9c1.1,1.6,2.6,3.1,2.8,5.2
	c-3,5.9-5.8,11.9-9.2,17.6c-5.1,8.5-12.7,9.2-19.7,2.3C84.1,177.1,81,171.5,78.4,165.5z"/>
<path class="st4" d="M375,132.9"/>
<path class="st5" d="M186.1,135.5c-1.6-5.3,2.3-8.8,6.1-12.2c3.6-3.1,3.9-6.3,0-8.8c-6.6-4.4-6.5-10.8-6.1-17.4c0.1-1,0-2.1,1.1-2.5
	c1.3-0.5,2,0.3,2.9,1.2c5.8,6,11.8,11.9,17.6,17.9c3.9,4,3.9,7-0.1,11c-5.4,5.5-10.9,10.8-16.4,16.2c-1.1,1.1-1.8,3.2-3.9,2.4
	c-2-0.8-0.9-2.9-1.2-4.4C186,138,186.1,137.2,186.1,135.5z"/>
<g>
	<path class="st6" d="M406.8,82.5c-0.1,0.8-0.5,1.2-1.1,1.6c-1.2,0.9-2.5,1.5-3.9,1.9c-5.5,1.6-8.3,5.4-8.6,11c-0.1,1.3-0.4,2.8-1,4
		c-0.8,1.6-1.9,1.8-3.1,0.4c-1.1-1.4-1.6-3.1-2.2-4.7c-1.4-4.5-5.1-7.4-9.8-7.8c-1.4-0.1-2.9-0.3-4.2-0.8c-0.9-0.3-1.9-0.6-2-1.7
		c-0.1-1.1,0.9-1.5,1.6-2c1.4-0.9,3-1.3,4.5-1.9c4.4-1.7,6.8-4.9,7.3-9.6c0.2-1.7,0.4-3.6,1.2-5.2c0.8-1.4,1.8-1.5,2.8-0.3
		c1.2,1.3,1.7,2.9,2.2,4.5c1.6,5.2,5.3,7.8,10.7,8.2c1.4,0.1,2.9,0.4,4.2,1.1C406,81.3,406.5,81.7,406.8,82.5z"/>
</g>
<g>
	<path class="st6" d="M404.1,56.1c0,0.4-0.2,0.6-0.5,0.8c-0.6,0.4-1.3,0.8-2,1c-2.8,0.8-4.3,2.8-4.5,5.7c0,0.7-0.2,1.4-0.5,2.1
		c-0.4,0.8-1,0.9-1.6,0.2c-0.5-0.7-0.8-1.6-1.1-2.4c-0.7-2.3-2.6-3.8-5.1-4c-0.7,0-1.5-0.1-2.2-0.4c-0.4-0.1-1-0.3-1-0.9
		c0-0.5,0.4-0.8,0.8-1c0.7-0.4,1.5-0.7,2.3-1c2.3-0.9,3.5-2.5,3.8-5c0.1-0.9,0.2-1.8,0.6-2.7c0.4-0.7,0.9-0.8,1.4-0.1
		c0.6,0.7,0.9,1.5,1.1,2.3c0.8,2.7,2.7,4,5.5,4.2c0.7,0,1.5,0.2,2.2,0.5C403.7,55.5,404,55.7,404.1,56.1z"/>
</g>
<g>
	<path class="st6" d="M419.7,95.1c0,0.4-0.2,0.6-0.5,0.8c-0.6,0.4-1.3,0.8-2,1c-2.8,0.8-4.3,2.8-4.5,5.7c0,0.7-0.2,1.4-0.5,2.1
		c-0.4,0.8-1,0.9-1.6,0.2c-0.5-0.7-0.8-1.6-1.1-2.4c-0.7-2.3-2.6-3.8-5.1-4c-0.7,0-1.5-0.1-2.2-0.4c-0.4-0.1-1-0.3-1-0.9
		c0-0.5,0.4-0.8,0.8-1c0.7-0.4,1.5-0.7,2.3-1c2.3-0.9,3.5-2.5,3.8-5c0.1-0.9,0.2-1.8,0.6-2.7c0.4-0.7,0.9-0.8,1.4-0.1
		c0.6,0.7,0.9,1.5,1.1,2.3c0.8,2.7,2.7,4,5.5,4.2c0.7,0,1.5,0.2,2.2,0.5C419.3,94.5,419.6,94.7,419.7,95.1z"/>
</g>
<path class="st6" d="M271.4,51.7l-0.6,0.2c-0.6,0.2-1.3-0.1-1.6-0.8l-6.5-19.2c-0.2-0.6,0.1-1.3,0.8-1.6l0.6-0.2
	c0.6-0.2,1.3,0.1,1.6,0.8l6.5,19.2C272.4,50.8,272,51.5,271.4,51.7z"/>
<path class="st6" d="M250.5,74.6l-0.2,0.6c-0.3,0.6-1,0.9-1.6,0.7l-18.7-7.8c-0.6-0.3-0.9-1-0.7-1.6l0.2-0.6c0.3-0.6,1-0.9,1.6-0.7
	l18.7,7.8C250.5,73.3,250.7,74,250.5,74.6z"/>
<path class="st6" d="M248.2,111l0,0.6c0,0.7-0.6,1.2-1.3,1.2l-20.3-0.4c-0.7,0-1.2-0.6-1.2-1.3l0-0.6c0-0.7,0.6-1.2,1.3-1.2
	l20.3,0.4C247.6,109.8,248.2,110.3,248.2,111z"/>
<path class="st6" d="M373.6,51.7l0.6,0.2c0.6,0.2,1.3-0.1,1.6-0.8l6.5-19.2c0.2-0.6-0.1-1.3-0.8-1.6l-0.6-0.2
	c-0.6-0.2-1.3,0.1-1.6,0.8l-6.5,19.2C372.6,50.8,373,51.5,373.6,51.7z"/>
<path class="st6" d="M306.9,48.5h0.6c0.7,0,1.2-0.6,1.2-1.2l0-20.3c0-0.7-0.6-1.2-1.2-1.2h-0.6c-0.7,0-1.2,0.6-1.2,1.2l0,20.3
	C305.6,47.9,306.2,48.5,306.9,48.5z"/>
<path class="st6" d="M343,48.5h0.6c0.7,0,1.2-0.6,1.2-1.2l0-20.3c0-0.7-0.6-1.2-1.2-1.2H343c-0.7,0-1.2,0.6-1.2,1.2l0,20.3
	C341.8,47.9,342.4,48.5,343,48.5z"/>
<path class="st6" d="M396.8,111l0,0.6c0,0.7,0.6,1.2,1.3,1.2l20.3-0.4c0.7,0,1.2-0.6,1.2-1.3l0-0.6c0-0.7-0.6-1.2-1.3-1.2l-20.3,0.4
	C397.3,109.8,396.8,110.3,396.8,111z"/>
</svg>
