<?xml version="1.0" encoding="utf-8"?>
<!-- Generator: Adobe Illustrator 21.0.0, SVG Export Plug-In . SVG Version: 6.00 Build 0)  -->
<svg version="1.1" id="Layer_1" xmlns="http://www.w3.org/2000/svg" xmlns:xlink="http://www.w3.org/1999/xlink" x="0px" y="0px"
	 viewBox="0 0 444.1 221.2" style="enable-background:new 0 0 444.1 221.2;" xml:space="preserve">
<style type="text/css">
	.st0{fill:none;stroke:#75C4BF;stroke-width:3.0529;stroke-miterlimit:10;}
	.st1{fill:none;stroke:#75C4BF;stroke-width:2.0353;stroke-miterlimit:10;}
	.st2{fill:#FFFFFF;stroke:#000000;stroke-miterlimit:10;}
	.st3{fill:#75C4BF;}
</style>
<path class="st0" d="M383.2,138.3c-0.1,0.6-0.3,1.1-0.4,1.7c-3.7,16.1-6.5,32.4-11.9,47.9c-1.3,3.6-2.8,7.2-5.6,10
	c-3.3,3.2-7.3,2.9-9.9-0.9c-4.4-6.4-6-13.8-8.2-21.1c-0.7-2.4-0.2-5.5-2.9-7.3c-0.4-1.4-0.8-2.8-1.4-4.2c-2.3-5.7-6.2-8.2-12.3-8.1
	c-8.6,0.1-13.2,6.1-17,14.5c-2.8,3.1-3.4,7.1-4.8,10.7c-1.7,4.5-3.3,9-5.2,13.4c-1.1,2.6-2.8,4.8-6.1,5.1c-3.7,0.3-5.7-1.9-7.2-4.7
	c-4.4-8.3-7.3-17.1-9.7-26.2c-2.9-11.1-4.7-22.4-6.4-33.8c14.1-8.7,32.4-14,52.5-14C348.7,121.6,368.7,128,383.2,138.3z"/>
<path class="st1" d="M344.3,168.8c-2.1,4.1-4,8.4-6.3,12.4c-4.1,7.3-11,8-16.8,1.9c-3.3-3.5-5.9-7.5-7.7-12
	c3.8-8.4,8.4-14.4,17-14.5c6.1-0.1,10,2.4,12.3,8.1C343.5,166,343.8,167.4,344.3,168.8z"/>
<path class="st0" d="M268.4,140c-3.7,16.1-6.5,32.4-11.9,47.9c-1.3,3.6-2.7,7.2-5.6,10c-3.3,3.1-7.3,2.9-9.8-0.9
	c-4.4-6.4-6.1-13.8-8.2-21.1c-0.7-2.4-0.2-5.5-2.9-7.3c-0.4-1.5-0.8-2.8-1.4-4.2c-2.3-5.6-6.2-8.2-12.3-8.1
	c-8.6,0.1-13.2,6.1-17,14.5c-2.8,3.1-3.4,7.1-4.8,10.7c-1.7,4.5-3.3,9-5.2,13.4c-1.1,2.6-2.7,4.8-6.1,5.1c-3.7,0.3-5.7-1.9-7.2-4.7
	c-4.4-8.3-7.3-17.1-9.7-26.1c-4-15.3-5.9-31-8.3-46.6c-1.5-9.8-1.5-19.2,1.7-28.6c3.6-10.4,14.1-19.7,26.7-19.3
	c8.2,0.2,15.9,1.4,23.6,3.9c2.1,0.7,4,0.6,6.1-0.3c9.1-4,18.6-5.2,28.5-3.5c10.2,1.9,24.2,12.3,26,26.2
	C271.9,114.3,271.4,127.3,268.4,140z"/>
<path class="st1" d="M229.9,168.8c-2.1,4.1-4,8.4-6.3,12.4c-4.1,7.3-11,8-16.8,1.9c-3.3-3.5-5.9-7.5-7.7-12
	c3.8-8.4,8.4-14.4,17-14.5c6.1-0.1,10,2.4,12.3,8.1C229.1,166,229.4,167.4,229.9,168.8z"/>
<path class="st0" d="M154,140c-3.7,16.1-6.5,32.4-11.9,47.9c-1.3,3.6-2.7,7.2-5.6,10c-3.3,3.1-7.3,2.9-9.8-0.9
	c-4.4-6.4-6.1-13.8-8.2-21.1c-0.7-2.4-0.2-5.5-2.9-7.3c-0.4-1.5-0.8-2.8-1.4-4.2c-2.3-5.6-6.2-8.2-12.3-8.1
	c-8.6,0.1-13.2,6.1-17,14.5c-2.8,3.1-3.4,7.1-4.8,10.7c-1.7,4.5-3.3,9-5.2,13.4c-1.1,2.6-2.7,4.8-6.1,5.1c-3.7,0.3-5.7-1.9-7.2-4.7
	c-4.4-8.3-7.3-17.1-9.7-26.1c-4-15.3-5.9-31-8.3-46.6c-1.5-9.8-1.5-19.2,1.7-28.6c3.6-10.4,14.1-19.7,26.7-19.3
	c8.2,0.2,15.9,1.4,23.6,3.9c2.1,0.7,4,0.6,6.1-0.3c9.1-4,18.6-5.2,28.5-3.5c10.2,1.9,24.2,12.3,26,26.2
	C157.5,114.3,157,127.3,154,140z"/>
<path class="st1" d="M115.5,168.8c-2.1,4.1-4,8.4-6.3,12.4c-4.1,7.3-11,8-16.8,1.9c-3.3-3.5-5.9-7.5-7.7-12
	c3.8-8.4,8.4-14.4,17-14.5c6.1-0.1,10,2.4,12.3,8.1C114.7,166,115,167.4,115.5,168.8z"/>
<path class="st2" d="M745.4,149.7"/>
<path class="st0" d="M356.6,63.4c6.8,1.2,14.1,4.9,20.3,10.3c-0.6,0.5-1.2,1.3-1.8,2.2L375,76l-0.1,0.2c-1,2.1-1.4,4.2-1.6,6
	c-4.7-3.9-10-6.4-14.6-7.3c-9.9-1.8-19.4-0.6-28.5,3.5c-2.1,0.9-4,1.1-6.1,0.3c-7.7-2.5-15.4-3.6-23.6-3.9
	c-12.6-0.4-23.2,8.9-26.7,19.3c-3.2,9.4-3.2,18.9-1.7,28.6c0.7,4.3,1.3,8.6,1.9,12.9c-1.3,0.8-2.5,1.6-3.7,2.4
	c-14.5-10.2-34.3-16.4-56.2-16.4c-21.1,0-40.3,5.8-54.6,15.3c-14.3-9.5-33.5-15.3-54.6-15.3c-26.1,0-49.4,9-64.1,22.8
	c-0.7-4.5-1.4-9-2-13.4c-0.4-2.9-0.9-5.7-1.3-8.6c-2-12.6-1.3-23.1,2.1-33.1c5.3-15.5,20-26.3,35.7-26.3c0.4,0,0.8,0,1.1,0
	c9,0.3,17.2,1.6,24.8,4c7.3-3.1,14.9-4.7,22.6-4.7c3.4,0,7,0.3,10.5,1c8,1.4,16.7,6.3,23.4,13.3c7.1-8.3,17.5-13.5,28.4-13.5
	c0.4,0,0.7,0,1.1,0c9,0.3,17.2,1.6,24.8,4c7.3-3.1,14.9-4.7,22.6-4.7c3.5,0,7,0.3,10.5,1c8.1,1.5,17,6.4,23.7,13.6
	c7.1-8.5,17.6-13.9,28.7-13.9c0.4,0,0.8,0,1.1,0c9,0.3,17.2,1.6,24.8,4c7.3-3.1,14.9-4.7,22.6-4.7C349.5,62.4,353.1,62.8,356.6,63.4
	z"/>
<path class="st0" d="M391.8,114.4c0,8.8-1,17.4-3,25.7c-0.2,0.8-0.3,1.5-0.5,2.3c-1.6-1.4-3.4-2.8-5.2-4c1.4-6.4,2.1-12.8,2.3-19.3
	c1.5-0.1,4.4-0.8,6.3-4.5C391.8,114.5,391.8,114.4,391.8,114.4z"/>
<g>
	<path class="st3" d="M398.6,67.1c0,0.4-0.2,0.6-0.5,0.8c-0.6,0.4-1.3,0.8-2,1c-2.8,0.8-4.3,2.8-4.5,5.7c0,0.7-0.2,1.4-0.5,2.1
		c-0.4,0.8-1,0.9-1.6,0.2c-0.5-0.7-0.8-1.6-1.1-2.4c-0.7-2.3-2.6-3.8-5.1-4c-0.7,0-1.5-0.1-2.2-0.4c-0.4-0.1-1-0.3-1-0.9
		c0-0.5,0.4-0.8,0.8-1c0.7-0.4,1.5-0.7,2.3-1c2.3-0.9,3.5-2.5,3.8-5c0.1-0.9,0.2-1.8,0.6-2.7c0.4-0.7,0.9-0.8,1.4-0.1
		c0.6,0.7,0.9,1.5,1.1,2.3c0.8,2.7,2.7,4,5.5,4.2c0.7,0,1.5,0.2,2.2,0.5C398.2,66.5,398.5,66.7,398.6,67.1z"/>
</g>
<g>
	<path class="st3" d="M414.2,106.1c0,0.4-0.2,0.6-0.5,0.8c-0.6,0.4-1.3,0.8-2,1c-2.8,0.8-4.3,2.8-4.5,5.7c0,0.7-0.2,1.4-0.5,2.1
		c-0.4,0.8-1,0.9-1.6,0.2c-0.5-0.7-0.8-1.6-1.1-2.4c-0.7-2.3-2.6-3.8-5.1-4c-0.7,0-1.5-0.1-2.2-0.4c-0.4-0.1-1-0.3-1-0.9
		c0-0.5,0.4-0.8,0.8-1c0.7-0.4,1.5-0.7,2.3-1c2.3-0.9,3.5-2.5,3.8-5c0.1-0.9,0.2-1.8,0.6-2.7c0.4-0.7,0.9-0.8,1.4-0.1
		c0.6,0.7,0.9,1.5,1.1,2.3c0.8,2.7,2.7,4,5.5,4.2c0.7,0,1.5,0.2,2.2,0.5C413.8,105.5,414.1,105.7,414.2,106.1z"/>
</g>
<g>
	<path class="st3" d="M402.3,91.5c-0.1,0.8-0.5,1.2-1.1,1.6c-1.2,0.9-2.5,1.5-3.9,1.9c-5.5,1.6-8.3,5.4-8.6,11c-0.1,1.3-0.4,2.8-1,4
		c-0.8,1.6-1.9,1.8-3.1,0.4c-1.1-1.4-1.6-3.1-2.2-4.7c-1.4-4.5-5.1-7.4-9.8-7.8c-1.4-0.1-2.9-0.3-4.2-0.8c-0.9-0.3-1.9-0.6-2-1.7
		s0.9-1.5,1.6-2c1.4-0.9,3-1.3,4.5-1.9c4.4-1.7,6.8-4.9,7.3-9.6c0.2-1.7,0.4-3.6,1.2-5.2c0.8-1.4,1.8-1.5,2.8-0.3
		c1.2,1.3,1.7,2.9,2.2,4.5c1.6,5.2,5.3,7.8,10.7,8.2c1.4,0.1,2.9,0.4,4.2,1.1C401.5,90.3,402,90.7,402.3,91.5z"/>
</g>
</svg>
