<?xml version="1.0" encoding="utf-8"?>
<!-- Generator: Adobe Illustrator 21.0.0, SVG Export Plug-In . SVG Version: 6.00 Build 0)  -->
<svg version="1.1" id="Layer_1" xmlns="http://www.w3.org/2000/svg" xmlns:xlink="http://www.w3.org/1999/xlink" x="0px" y="0px"
	 viewBox="0 0 413.6 204" style="enable-background:new 0 0 413.6 204;" xml:space="preserve">
<style type="text/css">
	.st0{fill:#75C4BF;}
	.st1{fill:#5BA4A0;}
	.st2{fill:#437D78;}
	.st3{fill:#4C958F;}
	.st4{fill:#498480;}
	.st5{fill:#FFFFFF;stroke:#000000;stroke-miterlimit:10;}
</style>
<g>
	<path class="st0" d="M360.4,86.9c-2-15.5-17.5-27.1-28.9-29.2c-11-2-21.6-0.6-31.7,3.8c-2.3,1-4.4,1.2-6.8,0.4
		c-8.5-2.8-17.2-4-26.2-4.3c-14-0.4-25.8,9.9-29.7,21.5c-3.6,10.5-3.6,21-1.9,31.9c2.6,17.4,4.9,34.8,9.3,51.9
		c2.6,10,6,19.9,10.8,29.1c1.6,3.1,3.8,5.5,8,5.2c3.8-0.3,5.5-2.8,6.8-5.6c2.2-4.8,3.9-9.9,5.9-14.9c1.6-4.1,2.3-8.6,5.4-12
		c4.2-9.3,9.4-16.1,18.9-16.2c6.8-0.1,11.1,2.7,13.7,9c0.6,1.5,1,3.1,1.5,4.6c2.9,1.9,2.4,5.3,3.2,8.1c2.5,8.1,4.3,16.4,9.2,23.5
		c2.9,4.2,7.3,4.5,10.9,1c3.2-3.1,4.8-7.1,6.2-11.2c6-17.4,9-35.5,13.2-53.3C361.6,116.1,362.2,101.5,360.4,86.9z M351.6,115.1
		L351.6,115.1C351.6,115.1,351.6,115.1,351.6,115.1c0,1.1-0.8,1.8-1.7,1.8c-0.9,0-1.7-0.8-1.7-1.8c0-0.1,0-0.1,0-0.2h0l0.2-6.6
		l0.4-10.1l0-0.1c0.1-1.3,0.2-2.6,0.1-3.9c0-0.3,0-0.6,0-0.9c-0.8-15.2-13.1-27.6-28.3-28.5c-4.7-0.3-9.2,0.5-13.3,2.1
		c4.7-2.6,10.2-4,16-3.7c15.5,0.7,28.2,13.2,28.9,28.8c0,0.8,0,1.6,0,2.4h0.1L351.6,115.1z"/>
	<path class="st1" d="M149.2,117.2c3,0,5.9-0.3,8.8-0.9c-1.7,12-4.7,23.9-7.6,35.7c-2.1,8.6-4.1,17.2-6.2,25.7
		c-1.3,5.2-3.6,9.9-6.5,14.4c-3.3,5-8.3,4.9-11.6-0.2c-4.9-7.6-6.8-16.2-9.3-24.7c-0.8-2.9-0.8-6.2-3.4-8.3c-0.1-2-1.5-3.4-2.6-4.9
		c-6.5-9.2-18.7-10-24.4-4.6c-3.1,2.9-5.8,6.4-8.7,9.5c-0.9,1-1.1,2.2-1.1,3.4c-2.7,0.7-2.8,3.4-3.6,5.4c-2.6,6.6-4.9,13.4-7.5,20
		c-0.8,2-1.9,4-3.3,5.6c-3.3,4-6.2,4-9.7,0.2c-3.4-3.8-5-8.6-6.8-13.2c-7-17.9-10.5-36.6-13.3-55.5c-1.7-11.7-4.3-23.3-3.7-35.2
		c0.7-13,4.9-24.3,16.1-32.1c8.2-5.6,17.3-5.6,26.5-4.5c4,0.5,8.1,1,11.8,2.6c6.9,2.9,13,1.3,19.6-1c5.8-2,11.4-3.1,16.8-3.1
		c-1.6,3.2-2.9,6.4-4.1,9.2c-3.4,8.3-7.7,18.6-3.9,30.5c4.1,13,15.1,19.7,19.6,21.9C136.7,115.7,142.9,117.2,149.2,117.2z"/>
	<path class="st1" d="M182.5,96.3c-8,3.5-17.2,3.9-25.3,1.2c-4.1-1.4-14.3-5.6-19.3-16.2c-4.6-9.6-2.2-18.6,0-27.1
		c0.9-3.5,2-7.6,3.4-11.5c9.4,0,18.4,3.4,27.1,10.6c7.3,6.1,10,14.3,11.9,23.1C181.6,83,182.3,89.6,182.5,96.3z"/>
	<path class="st2" d="M76.6,162.2c0-1.3,0.1-2.4,1.1-3.4c2.9-3.1,5.6-6.6,8.7-9.5c5.7-5.4,17.9-4.5,24.4,4.6c1,1.5,2.5,2.9,2.6,4.9
		c-2.8,5.5-5.4,11.2-8.6,16.5c-4.7,7.9-11.9,8.7-18.5,2.1C82,173.1,79.1,167.8,76.6,162.2z"/>
	<path class="st3" d="M315.5,162.2c-2.3,4.6-4.5,9.4-7,13.9c-4.6,8.1-12.2,8.9-18.7,2.1c-3.7-3.9-6.6-8.4-8.5-13.4
		c4.2-9.3,9.4-16.1,18.9-16.2c6.8-0.1,11.1,2.7,13.7,9C314.6,159.1,315,160.7,315.5,162.2z"/>
	<path class="st4" d="M189.6,136.8c-1.6-5.3,2.3-8.8,6.1-12.2c3.6-3.1,3.9-6.3,0-8.8c-6.6-4.4-6.5-10.8-6.1-17.4
		c0.1-1,0-2.1,1.1-2.5c1.3-0.5,2,0.3,2.9,1.2c5.8,6,11.8,11.9,17.6,17.9c3.9,4,3.9,7-0.1,11c-5.4,5.5-10.9,10.8-16.4,16.2
		c-1.1,1.1-1.8,3.2-3.9,2.4c-2-0.8-0.9-2.9-1.2-4.4C189.5,139.3,189.6,138.4,189.6,136.8z"/>
</g>
<g>
	<path class="st0" d="M357.3,32c0,0.6-0.4,1-0.9,1.4c-1,0.7-2.1,1.3-3.3,1.6c-4.6,1.4-6.9,4.5-7.3,9.2c-0.1,1.2-0.3,2.3-0.8,3.4
		c-0.6,1.4-1.6,1.5-2.6,0.3c-0.9-1.2-1.4-2.5-1.9-3.9c-1.3-3.8-4.3-6.2-8.3-6.6c-1.2-0.1-2.4-0.3-3.5-0.7c-0.7-0.3-1.7-0.5-1.7-1.4
		c-0.1-0.9,0.7-1.3,1.3-1.7c1.2-0.8,2.5-1.1,3.8-1.6c3.7-1.4,5.8-4.1,6.2-8.1c0.2-1.5,0.3-3,1-4.3c0.6-1.2,1.5-1.3,2.4-0.3
		c0.9,1.1,1.4,2.4,1.9,3.8c1.4,4.4,4.5,6.5,9,6.9c1.2,0.1,2.4,0.4,3.6,0.9C356.7,31,357.1,31.4,357.3,32z"/>
</g>
<g>
	<path class="st0" d="M395.4,50.3c-0.1,0.8-0.5,1.3-1.1,1.7c-1.2,0.9-2.6,1.6-4.1,2c-5.7,1.7-8.6,5.6-9,11.5c-0.1,1.4-0.4,2.9-1,4.2
		c-0.8,1.7-2,1.9-3.2,0.4c-1.1-1.5-1.7-3.2-2.3-4.9c-1.5-4.7-5.3-7.7-10.2-8.1c-1.5-0.1-3-0.3-4.4-0.8c-0.9-0.3-2-0.6-2.1-1.8
		c-0.1-1.1,0.9-1.6,1.7-2.1c1.5-0.9,3.1-1.4,4.7-2c4.6-1.8,7.1-5.1,7.6-10c0.2-1.8,0.4-3.7,1.3-5.4c0.8-1.5,1.9-1.6,2.9-0.3
		c1.2,1.4,1.8,3,2.3,4.7c1.7,5.4,5.5,8.1,11.1,8.5c1.5,0.1,3,0.4,4.4,1.1C394.6,49.1,395.1,49.5,395.4,50.3z"/>
</g>
<g>
	<path class="st0" d="M382,82.1c0,0.4-0.2,0.6-0.5,0.8c-0.6,0.4-1.3,0.8-1.9,1c-2.7,0.8-4.1,2.7-4.3,5.4c-0.1,0.7-0.2,1.4-0.5,2
		c-0.4,0.8-1,0.9-1.5,0.2c-0.5-0.7-0.8-1.5-1.1-2.3c-0.7-2.2-2.5-3.7-4.9-3.9c-0.7-0.1-1.4-0.2-2.1-0.4c-0.4-0.2-1-0.3-1-0.8
		c0-0.5,0.4-0.8,0.8-1c0.7-0.4,1.5-0.7,2.2-1c2.2-0.8,3.4-2.4,3.6-4.8c0.1-0.9,0.2-1.7,0.6-2.5c0.4-0.7,0.9-0.8,1.4-0.2
		c0.5,0.7,0.8,1.4,1.1,2.2c0.8,2.6,2.6,3.8,5.3,4c0.7,0.1,1.4,0.2,2.1,0.5C381.6,81.5,381.9,81.7,382,82.1z"/>
</g>
<path class="st5" d="M361.4,120.9"/>
<g>
	<path class="st4" d="M106.5,18.8c0,0.4,0,0.7,0,1.1c-0.3,0.1-0.5,0.3-0.5,0.5c0,1.5-0.2,3,0.1,4.5c0,0.3,0.1,0.6-0.1,1
		c-0.3,0.8-0.5,1.6-0.5,2.4c0,0.8,0.1,1.7-0.1,2.5c-0.3,1.5-0.4,3.1-0.4,4.6c0,0.4-0.1,0.6-0.4,0.8c-0.9,0.6-1.6,1.2-1.4,2.5
		c0.1,1.3,0.3,2.6-0.3,3.9c0,0,0,0,0,0c-0.7,0.2-1.4,0.2-2.2-0.1c-0.4-0.2-0.9,0.2-1.2-0.3c-0.2-0.4-0.2-0.8-0.2-1.2
		c0-0.2,0-0.5,0-0.7c0-1,0-2.1,0-3.1c0-0.2,0-0.6-0.4-0.3c-0.5,0.3-0.8,0-1.1-0.3c-0.2-0.2-0.3-0.5-0.6-0.6
		c-0.1-0.2-0.1-0.4-0.1-0.6c0.2-1.4,0.2-2.8,0-4.2c-0.1-0.7,0-1.5-0.4-2.1c0-0.2,0-0.4,0-0.6c0.3-1.3,0.2-1.4-1.1-1.4
		c-3.4,0-6.9,0-10.3,0c-0.8,0-1.4,0.2-1.8,0.9c-0.5,1-1.7,1.2-2.4,1.8c-0.1,0.1-0.3,0.2-0.4,0.1C79.8,29.4,79,30,78.1,30
		c-17.5,0-35,0-52.4,0c-1.5,0-3.1,0-4.5-0.6c-1.2-0.4-2-1.2-2.4-2.3c-0.5-1.2-0.5-1.3-1.7-1.3c-1.1,0-1.6-0.5-1.6-1.6
		c0-0.9,0-1.7,0-2.6c0.1-1.5,0.3-2,1.8-1.8c0.5,0,1.2-0.1,1.3-0.6c0.1-0.7,0.5-1.3,0.6-2c0,0,0,0,0,0c0.9,0.2,1.4-0.7,1.9-1.1
		c0.8-0.6,1.5-0.8,2.3-0.8c18.7,0,37.4,0,56.1,0c0.9,0,1.8,0.2,2.6,0.7c0.3,0.2,0.6,0.4,1,0.4c0,0,0,0,0,0c0.3,1.1,1.1,1.9,2,1.9
		c3.3,0,6.7,0,10,0c0.6,0,0.9-0.2,0.8-0.9c0-0.8,0-1.6,0-2.3c-0.1-0.7,0-1.3,0.9-1c0,0,0.1-0.1,0.1-0.1c0-0.3-0.4-0.2-0.4-0.5
		c0.2-0.2,0.6-0.1,0.8-0.1c1.6-0.1,3.3,0.2,4.9,0.1c1.1-0.1,2.2,0,3.3,0c0.3,0,0.6-0.1,0.7,0.2c0.2,0.8,0.5,1.6,0.3,2.3
		C106.3,17,106.3,17.9,106.5,18.8z M51.4,18C51.4,18,51.4,18,51.4,18c-9.4,0-18.7,0-28.1,0c-1.2,0-2.3,0.9-2.3,2.1
		c0,1.7,0,3.4,0,5.1c0,1,0.8,1.8,1.8,1.9c1.3,0.2,2.6,0.1,3.9,0.1c16.9,0,33.8,0,50.8,0c0.5,0,1,0,1.5,0c2-0.1,3-0.9,2.8-2.9
		c-0.1-1.3,0-2.7,0-4c0-1.5-0.9-2.4-2.4-2.4C70.1,18,60.7,18,51.4,18z M101.2,16.1c-0.7,0-1.3,0-2,0c-0.5,0-0.6,0.2-0.6,0.6
		c0,1.3,0.1,2.6,0.2,3.9c0.3,3.2,0.4,6.5,0.8,9.7c0.1,1,0.1,2,0.1,3c0,0.4,0.1,0.9,0.5,0.9c0.6,0.1,1.3,0.2,1.9-0.2
		c0.1-0.1,0.1-0.2,0.1-0.3c0.1-1.8,0.4-3.5,0.5-5.3c0-1.5,0.3-3,0.4-4.5c0.1-2.1,0.4-4.2,0.6-6.4c0.1-1.6,0.2-1.4-1.4-1.4
		C102,16.1,101.6,16.1,101.2,16.1z M90.5,24.3c1.7,0,3.3,0,5,0c0.5,0,0.7-0.1,0.7-0.6c-0.1-0.7,0-1.5-0.1-2.2
		c-0.1-0.4-0.2-0.5-0.6-0.5c-3.3,0-6.6,0-9.9,0c-0.5,0-0.7,0.2-0.7,0.7c0,0.7,0,1.3,0,2c0,0.6,0.2,0.7,0.8,0.7
		C87.2,24.3,88.8,24.3,90.5,24.3z"/>
	<path class="st4" d="M149.6,81.6c-1.5-1.9-2.9-3.9-4.3-5.8c-1-1.3-1.8-1.5-3.2-0.5c-2.3,1.7-4.6,3.4-6.9,5.1
		c-0.2,0.1-0.4,0.3-0.5,0.3l0,0l-4.3,3.2l-0.6-0.9l0,0c-2-1.9-3.2-1.7-4,0.4c-1.9,4.6-3.8,9.1-5.7,13.7c-0.9,2.2,0.1,3.4,2.4,3.1
		c2.4-0.3,4.9-0.5,7.3-0.7c2.7-0.3,5.4-0.6,8.1-0.9c1.4-0.2,1.9-1.4,1.3-2.6l-1.4-1.9l4-3c0,0,0,0,0,0c2.6-1.9,4.9-3.7,7.3-5.4
		C150.9,84.3,151,83.5,149.6,81.6z M145.4,83.8c-3.6,2.6-7.2,5.3-10.8,7.9c-1.5,1.1-1.7,1.9-0.8,3.7c-2.9,0.3-5.8,0.7-8.6,1
		c-0.8,0.1-1-0.5-0.7-0.9c1.3-2.3,1.9-4.9,3.2-7.1c0.2-0.3,0.4-0.5,0.7-0.3c1.7,1,2.9,0,4-0.9c3.1-2.5,6.4-4.5,9.4-7.1
		c0.7-0.6,1.4-0.9,2.2,0.2c0.7,0.8,1.1,1.7,1.8,2.5C146.3,83.2,145.8,83.5,145.4,83.8z"/>
	<path class="st4" d="M19.1,17.2c-0.1,0.7-0.5,1.3-0.6,2c-0.1,0.4-0.8,0.6-1.3,0.6c-1.5-0.1-1.7,0.3-1.8,1.8c0,0.9,0,1.7,0,2.6
		c0,1.1,0.5,1.6,1.6,1.6c1.2,0,1.2,0.1,1.7,1.3c0.5,1.1,1.2,1.9,2.4,2.3c1.5,0.5,3,0.6,4.5,0.6c17.5,0,35,0,52.4,0
		c0.9,0,1.7-0.6,2.6-0.1c0.1,0,0.3,0,0.4-0.1c0.8-0.7,1.9-0.9,2.4-1.8c0.4-0.7,1-0.9,1.8-0.9c3.4,0,6.9,0,10.3,0
		c1.2,0,1.4,0.2,1.1,1.4c-0.4-1.2-0.4-1.2-1.8-1.2c-3.2,0-6.5,0-9.7,0c-0.5,0-0.8,0.1-1.1,0.6c-1.2,1.8-2.9,2.5-4.9,2.5
		c-18.4,0-36.9,0-55.3,0c-2.1,0-3.8-0.7-4.9-2.5c-0.6-1-1-2-2.5-1.8c-0.7,0.1-1.2-0.6-1.3-1.4c0-1.3,0-2.5,0-3.8
		c0.1-1.1,0.6-1.6,1.7-1.5c0.9,0.1,1.4-0.2,1.6-1.1C18.5,17.8,18.7,17.4,19.1,17.2z"/>
	<path class="st4" d="M83,16.4c-0.4,0-0.7-0.2-1-0.4c-0.8-0.5-1.6-0.7-2.6-0.7c-18.7,0-37.4,0-56.1,0c-0.9,0-1.6,0.2-2.3,0.8
		c-0.5,0.4-1,1.3-1.9,1.1c0.8-1.4,2.1-2,3.6-2.1c1.1-0.1,2.2,0,3.3,0c17.8,0,35.7,0,53.5,0C80.8,15,82.1,15.4,83,16.4z"/>
	<path class="st4" d="M106.5,18.8c-0.2-0.9-0.2-1.8,0.1-2.7c0.2-0.8,0-1.6-0.3-2.3c-0.1-0.3-0.4-0.2-0.7-0.2c-1.1,0-2.2-0.1-3.3,0
		c-1.6,0.1-3.2-0.2-4.9-0.1c-0.3,0-0.6-0.1-0.8,0.1c0,0.3,0.4,0.3,0.4,0.5c0,0-0.1,0.1-0.1,0.1c-0.9-0.2-1,0.3-0.9,1
		c0.1,0.8,0,1.6,0,2.3c0,0.7-0.3,0.9-0.8,0.9c-3.3,0-6.7,0-10,0c-0.9,0-1.8-0.8-2-1.9c0.4,0.1,0.7,0.5,0.8,0.8
		c0.3,0.7,0.8,0.7,1.5,0.7c3.2,0,6.5,0,9.7,0c0.5,0,0.7-0.2,0.6-0.7c-0.1-0.8-0.1-1.5-0.2-2.3c-0.1-1.3,0.5-1.9,1.8-1.9
		c2.6,0,5.2,0,7.9,0c1.3,0,2,0.6,1.8,1.9C106.7,16.3,106.9,17.6,106.5,18.8z"/>
	<path class="st4" d="M102.8,42.6c0.5-1.3,0.4-2.6,0.3-3.9c-0.1-1.3,0.5-1.9,1.4-2.5c0.3-0.2,0.4-0.4,0.4-0.8c0-1.5,0.1-3.1,0.4-4.6
		c0.2-0.8,0.1-1.6,0.1-2.5c0-0.8,0.2-1.6,0.5-2.4c0,0.9,0,1.8-0.1,2.7c-0.2,2.4-0.4,4.7-0.6,7.1c-0.1,0.7-0.4,1.3-1.1,1.4
		c-0.4,0.1-0.5,0.4-0.5,0.8c0,1.1,0,2.1,0,3.2C103.5,41.7,103.4,42.3,102.8,42.6z"/>
	<path class="st4" d="M106,24.9c-0.3-1.5-0.1-3-0.1-4.5c0-0.3,0.3-0.5,0.5-0.5C106.4,21.6,106.3,23.3,106,24.9z"/>
</g>
</svg>
