<?xml version="1.0" encoding="utf-8"?>
<!-- Generator: Adobe Illustrator 21.0.0, SVG Export Plug-In . SVG Version: 6.00 Build 0)  -->
<svg version="1.1" id="Layer_1" xmlns="http://www.w3.org/2000/svg" xmlns:xlink="http://www.w3.org/1999/xlink" x="0px" y="0px"
	 viewBox="0 0 444.1 221.2" style="enable-background:new 0 0 444.1 221.2;" xml:space="preserve">
<style type="text/css">
	.st0{fill:#75C4BF;}
	.st1{fill:#5BA4A0;}
	.st2{fill:#437D78;}
	.st3{fill:#4C958F;}
	.st4{fill:#FFFFFF;stroke:#000000;stroke-miterlimit:10;}
	.st5{fill:#498480;}
	.st6{fill:#FFFFFF;stroke:#498480;stroke-width:2;stroke-miterlimit:10;}
	.st7{fill:none;stroke:#498480;stroke-width:2;stroke-miterlimit:10;}
</style>
<g>
	<path class="st0" d="M403.3,138.1c-4.6,19.9-8,40.1-14.7,59.4c-1.6,4.5-3.4,8.9-7,12.4c-4.1,3.9-9,3.6-12.2-1.1
		c-5.4-7.9-7.5-17.1-10.2-26.1c-0.9-3-0.3-6.8-3.6-9c-0.5-1.8-1-3.5-1.7-5.2c-2.9-7-7.7-10.1-15.3-10c-10.7,0.1-16.4,7.6-21.1,18
		c-3.5,3.8-4.2,8.8-6,13.3c-2.1,5.6-4.1,11.2-6.5,16.6c-1.4,3.2-3.4,6-7.6,6.3c-4.6,0.4-7.1-2.3-8.9-5.8c-5.4-10.3-9.1-21.2-12-32.4
		c-4.9-19-7.3-38.4-10.3-57.8c-1.9-12.1-1.9-23.8,2.1-35.5c4.4-12.9,17.5-24.4,33.1-23.9c10.1,0.3,19.7,1.7,29.2,4.8
		c2.6,0.9,4.9,0.7,7.5-0.4c11.3-5,23-6.5,35.3-4.3c12.7,2.3,30,15.3,32.2,32.5C407.6,106.2,407,122.4,403.3,138.1z"/>
	<path class="st1" d="M181.9,144.9c-1.5,6.5-3.1,13.1-4.7,19.6c-0.5,2.3-1.1,4.5-1.6,6.8c-1.7,6.9-3.3,13.8-5.1,20.7
		c-1.4,5.5-3.9,10.6-7,15.3c-3.5,5.3-8.9,5.2-12.3-0.2c-5.2-8.1-7.3-17.3-9.9-26.4c-0.9-3.1-0.9-6.6-3.6-8.9
		c-0.2-2.1-1.7-3.6-2.8-5.2c-6.9-9.8-19.9-10.7-26-4.9c-3.3,3.1-6.1,6.8-9.3,10.1c-0.9,1.1-1.1,2.1-1.2,3.2c0,0.2,0,0.3,0,0.5
		c-2.9,0.8-3,3.6-3.8,5.7c-2.8,7.1-5.3,14.3-8,21.4c-0.8,2.1-2,4.2-3.5,6c-3.5,4.3-6.7,4.3-10.3,0.2c-3.7-4-5.3-9.2-7.2-14.1
		c-6.8-17.2-10.4-35.2-13.3-53.4l0,0c-0.3-1.9-0.6-3.9-0.9-5.8c-1.8-12.4-4.6-24.8-3.9-37.5c0.1-2.3,0.3-4.6,0.7-6.8
		c1.7-11,6.5-20.5,16.5-27.5c8.7-6,18.4-6,28.2-4.8c4.2,0.5,8.7,1.1,12.5,2.7c7.3,3.1,13.8,1.4,20.9-1.1c7.5-2.6,14.7-3.7,21.5-3.2
		c10.9,0.8,20.8,5.8,29.7,15.4c2.3,2.5,4,5.2,5.3,8.1c2.5,5.6,3.4,11.8,3.8,18.1C187.7,114.6,185.2,129.8,181.9,144.9z"/>
	<path class="st2" d="M98.4,175.5c0-1.3,0.1-2.6,1.2-3.7c3.1-3.3,5.9-7,9.3-10.1c6.1-5.7,19.1-4.8,26,4.9c1.1,1.6,2.6,3.1,2.8,5.2
		c-3,5.9-5.8,11.9-9.2,17.6c-5.1,8.5-12.7,9.2-19.7,2.3C104.1,187.1,101,181.5,98.4,175.5z"/>
	<path class="st3" d="M355.6,173.8c-2.6,5.1-5,10.4-7.8,15.4c-5.1,9-13.6,9.9-20.8,2.3c-4.1-4.3-7.3-9.3-9.5-14.9
		c4.7-10.4,10.4-17.9,21.1-18c7.6-0.1,12.4,3,15.3,10C354.6,170.3,355,172.1,355.6,173.8z"/>
</g>
<path class="st4" d="M745.4,149.7"/>
<path class="st5" d="M216.1,145.5c-1.6-5.3,2.3-8.8,6.1-12.2c3.6-3.1,3.9-6.3,0-8.8c-6.6-4.4-6.5-10.8-6.1-17.4c0.1-1,0-2.1,1.1-2.5
	c1.3-0.5,2,0.3,2.9,1.2c5.8,6,11.8,11.9,17.6,17.9c3.9,4,3.9,7-0.1,11c-5.4,5.5-10.9,10.8-16.4,16.2c-1.1,1.1-1.8,3.2-3.9,2.4
	c-2-0.8-0.9-2.9-1.2-4.4C216,148,216.1,147.2,216.1,145.5z"/>
<path class="st6" d="M393.3,76.4v1.3c0,1.5-1.2,2.7-2.7,2.7h-3.2v3.2c0,1.8-1.5,3.3-3.3,3.3s-3.3-1.5-3.3-3.3v-3.2h-3.4
	c-1.5,0-2.7-1.2-2.7-2.7v-1.3c0-1.5,1.2-2.7,2.7-2.7h3.4v-3.8c0-1.8,1.5-3.3,3.3-3.3c0.9,0,1.7,0.4,2.3,1c0.6,0.6,1,1.4,1,2.3v3.8
	h3.2C392.1,73.8,393.3,75,393.3,76.4z"/>
<path class="st6" d="M416.2,93.4V95c0,1.8-1.6,3.4-3.7,3.4h-4.4v4c0,2.3-2,4.2-4.6,4.2c-2.5,0-4.5-1.9-4.5-4.2v-4h-4.7
	c-2,0-3.7-1.5-3.7-3.4v-1.6c0-1.8,1.6-3.4,3.7-3.4h4.7v-4.8c0-2.3,2-4.1,4.5-4.1c1.3,0,2.4,0.5,3.2,1.2c0.8,0.8,1.3,1.8,1.3,2.9V90
	h4.4C414.5,90,416.2,91.6,416.2,93.4z"/>
<path class="st6" d="M397.8,111.8v1.4c0,1.6-1.3,2.8-2.8,2.8h-3.4v3.4c0,1.9-1.6,3.5-3.5,3.5s-3.5-1.6-3.5-3.5V116h-3.7
	c-1.6,0-2.8-1.3-2.8-2.8v-1.4c0-1.6,1.3-2.8,2.8-2.8h3.7v-4.1c0-1.9,1.6-3.5,3.5-3.5c1,0,1.9,0.4,2.5,1c0.7,0.7,1,1.5,1,2.5v4.1h3.4
	C396.5,109,397.8,110.2,397.8,111.8z"/>
<path class="st7" d="M28,16.2c0.6,0.8,0.3,2-0.5,2.5l-3.6,2.3l4.9,7.5l-13.6,8.9L10.3,30l-3.6,2.3c-0.8,0.6-2,0.3-2.5-0.5
	c-0.6-0.8-0.3-2,0.5-2.5l20.7-13.5C26.3,15.2,27.4,15.4,28,16.2z"/>
<path class="st6" d="M39.4,33.7l-4,2.6c0,0,0.1,0.1,0.1,0.1l26.2,40.2c1.1,1.8,0.7,4.1-1.1,5.3l-9.5,6.2c-1.8,1.2-4.1,0.6-5.3-1.1
	l-3.4-5.2l3.7-2.4l-1.9-2.9l-3.7,2.4l-2-3l7.6-5L44.4,68l-7.6,5l-1.9-2.9l4.5-2.9l-1.9-2.9l-4.5,2.9l-1.9-2.9l7.9-5.2l-1.9-2.9
	l-7.9,5.2l-1.9-2.9l4.5-2.9l-1.9-2.9l-4.5,2.9l-5.6-8.7c0-0.1-0.1-0.1-0.1-0.1l-4,2.6L13.5,46l23.8-15.5L39.4,33.7z"/>
<path class="st6" d="M61.4,86.5l3.2,4.9c0.4,0.6,0.2,1.3-0.3,1.7l-1.5,1l9.7,14.9l-1.9,1.2l-9.7-14.9l-1.5,1
	c-0.6,0.4-1.3,0.2-1.7-0.4L54.5,91c-0.4-0.6-0.2-1.3,0.4-1.7l4.9-3.2C60.3,85.8,61.1,86,61.4,86.5z"/>
<path class="st6" d="M173,112.7c2.9-3.6,3.7-8.2,2.5-12.1c-0.1-0.4-0.3-0.9-0.5-1.3c-0.4-0.9-0.9-1.7-1.5-2.5
	c-0.3-1.3-0.2-2.8,0.5-4.2l10.2-12.6c1.9,1.2,4.4,0.8,5.8-1L218.3,44c1.5-1.9,1.2-4.7-0.7-6.2l-1.1-0.9c-1.9-1.5-4.7-1.2-6.2,0.7
	l-28.3,34.9c-1.4,1.7-1.3,4.3,0.3,5.9l-10.5,13c-0.7,0.8-1.1,1.8-1.4,2.7c-0.4,1.4-0.3,2.9,0.3,4.1c0.3,0.6,0.7,1.1,1.2,1.5
	c0,0,0,0,0,0c2.2,3.5,2,8.1-0.7,11.6c-3.5,4.3-9.6,5-13.8,1.6c-2.8-2.3-4-5.8-3.4-9.2c-0.2-0.1-0.5-0.3-0.7-0.5l-1.5-1.2
	c-1.5,4.8-0.2,10,3.7,13.2C160.6,119.3,168.5,118.2,173,112.7z"/>
<path class="st5" d="M215.6,40.1l-1.2-0.9c-0.8-0.6-2-0.5-2.6,0.3l-28,34.6c-0.6,0.8-0.5,2,0.3,2.6l1.2,0.9c0.8,0.6,2,0.5,2.6-0.3
	l28-34.6C216.6,41.9,216.4,40.7,215.6,40.1z"/>
</svg>
